<?xml version="1.0" encoding="utf-8"?>
<!-- Generator: Adobe Illustrator 26.0.0, SVG Export Plug-In . SVG Version: 6.00 Build 0)  -->
<svg version="1.1" id="Layer_1" xmlns="http://www.w3.org/2000/svg" xmlns:xlink="http://www.w3.org/1999/xlink" x="0px" y="0px"
	 viewBox="0 0 16 16" style="enable-background:new 0 0 16 16;" xml:space="preserve">
<style type="text/css">
	.st0{fill:#5C8CC4;}
</style>
<g>
	<path class="st0" d="M14.71,11.68c-0.16-0.14-0.31-0.3-0.48-0.42c-0.67-0.49-1.39-0.86-2.18-1.1c-0.06-0.02-0.08-0.05-0.08-0.11
		c0-0.6,0-1.19,0-1.79c0-0.06-0.02-0.1-0.06-0.13c-0.5-0.42-0.99-0.83-1.49-1.25c-0.04-0.03-0.06-0.03-0.1,0
		c-0.12,0.11-0.24,0.21-0.36,0.31C9.6,7.49,9.23,7.81,8.87,8.12C8.83,8.15,8.81,8.19,8.81,8.24c0,0.42,0,0.84,0,1.25v0.08H7.77
		c0-0.04,0-0.07-0.01-0.1c-0.01-0.27-0.02-0.53-0.03-0.8C7.73,8.38,7.72,8.07,7.71,7.77c0-0.03,0.01-0.06,0.03-0.08
		C7.99,7.51,8.21,7.3,8.41,7.07c0.57-0.67,0.74-1.43,0.4-2.26C8.56,4.18,8.08,3.71,7.55,3.3c-0.01-0.01-0.05-0.01-0.07,0
		C7.04,3.64,6.65,4.03,6.37,4.52C6.12,4.95,5.99,5.4,6.05,5.89c0.05,0.4,0.2,0.75,0.44,1.07c0.21,0.28,0.47,0.5,0.76,0.68
		C7.3,7.67,7.32,7.7,7.32,7.76C7.31,8.15,7.3,8.55,7.29,8.95C7.28,9.16,7.28,9.38,7.27,9.59C6.93,9.64,6.59,9.68,6.26,9.74
		c-0.33,0.06-0.66,0.15-1,0.22c0,0,0-0.01,0-0.01C5.24,9.57,5.22,9.18,5.21,8.79c0-0.02,0.02-0.05,0.04-0.07
		C5.36,8.64,5.49,8.57,5.6,8.48C6.11,8,6.25,7.32,5.93,6.69C5.73,6.3,5.44,5.99,5.1,5.73c-0.05-0.04-0.08-0.04-0.12,0
		C4.83,5.88,4.66,6.02,4.53,6.19c-0.26,0.3-0.44,0.64-0.49,1.04C3.99,7.6,4.08,7.94,4.31,8.25c0.15,0.2,0.35,0.34,0.56,0.46
		c0.02,0.01,0.05,0.05,0.05,0.08C4.91,9.2,4.9,9.61,4.89,10.03c0,0.05-0.02,0.07-0.07,0.09c-0.23,0.08-0.46,0.16-0.68,0.26
		c-0.91,0.4-1.68,1.01-2.39,1.71c-0.19,0.18-0.35,0.39-0.51,0.63c0.9-0.44,1.81-0.82,2.74-1.12c1.29-0.42,2.62-0.71,3.97-0.82
		c0.46-0.04,0.93-0.07,1.4-0.07c0.52,0,1.04,0.04,1.56,0.08c0.37,0.03,0.74,0.09,1.11,0.15c0.72,0.13,1.43,0.32,2.12,0.57
		c0.2,0.07,0.39,0.14,0.6,0.22C14.73,11.7,14.73,11.69,14.71,11.68z M10.89,9.85c-0.33-0.06-0.66-0.11-1-0.17c0-0.27,0-0.54,0-0.81
		c0-0.04,0.01-0.07,0.01-0.11c0.06-0.25,0.31-0.43,0.55-0.4c0.24,0.03,0.44,0.26,0.44,0.52C10.89,9.2,10.89,9.52,10.89,9.85z"/>
	<path class="st0" d="M10.39,6.56C9.79,7.1,9.19,7.63,8.59,8.17c-0.03,0.03-0.08,0.03-0.11,0C8.39,8.1,8.31,8.03,8.22,7.95
		c0.13-0.11,0.24-0.21,0.36-0.32C9.06,7.21,9.53,6.79,10,6.37c0.1-0.09,0.21-0.18,0.31-0.27c0.04-0.04,0.07-0.03,0.11,0
		c0.28,0.23,0.56,0.47,0.84,0.7c0.01,0.01,0.02,0.02,0.05,0.04c0-0.15,0-0.29,0-0.42c0-0.11,0-0.11,0.11-0.11c0.12,0,0.24,0,0.37,0
		c0.06,0,0.08,0.02,0.08,0.08c0,0.29,0,0.58,0,0.87c0,0.05,0.02,0.09,0.05,0.12c0.2,0.17,0.4,0.34,0.6,0.51
		c0.02,0.02,0.05,0.04,0.08,0.07c-0.1,0.09-0.19,0.18-0.28,0.26c-0.02,0.01-0.06,0-0.08-0.01c-0.27-0.24-0.54-0.48-0.81-0.72
		C11.08,7.17,10.74,6.87,10.39,6.56z"/>
</g>
</svg>
