<?xml version="1.0" encoding="utf-8"?>
<!-- Generator: Adobe Illustrator 26.0.0, SVG Export Plug-In . SVG Version: 6.00 Build 0)  -->
<svg version="1.1" id="Layer_1" xmlns="http://www.w3.org/2000/svg" xmlns:xlink="http://www.w3.org/1999/xlink" x="0px" y="0px"
	 viewBox="0 0 1000 1000" style="enable-background:new 0 0 1000 1000;" xml:space="preserve">
<style type="text/css">
	.st0{fill:#5C8CC4;}
</style>
<g>
	<path class="st0" d="M939.4,740.64c-10.42-9.31-20.2-19.5-31.43-27.7c-43.61-31.84-91.21-56.07-142.88-72.01
		c-4.14-1.27-5.07-3.17-5.06-7.15c0.14-39.06,0.04-78.12,0.17-117.18c0.01-3.74-1.01-6.33-3.91-8.75
		c-32.53-27.25-64.99-54.57-97.39-81.97c-2.58-2.19-4.23-1.95-6.62,0.18c-7.78,6.9-15.74,13.61-23.65,20.37
		c-23.96,20.48-47.91,41-71.96,61.39c-2.62,2.21-3.61,4.51-3.6,7.9c0.12,27.34,0.06,54.68,0.05,82.02v5.37h-68.01
		c-0.14-2.49-0.27-4.4-0.34-6.32c-0.61-17.39-1.21-34.79-1.82-52.18c-0.69-20-1.44-39.99-1.96-59.99c-0.05-1.76,0.93-4.24,2.28-5.22
		c16.08-11.77,30.67-25.11,43.6-40.28c37.58-44.09,48.21-93.34,26.4-147.67c-16.74-41.72-47.96-72.1-82.55-99.33
		c-0.9-0.71-3.46-0.5-4.47,0.29c-29,22.5-54.69,48.07-73.22,80.15c-16,27.71-24.39,57.26-20.53,89.48
		c3.13,26.08,13.39,49.37,29.05,70.31c13.62,18.2,30.81,32.47,50.05,44.35c2.88,1.78,4.15,3.52,4.01,7.3
		c-0.95,26-1.47,52.02-2.17,78.03c-0.38,14.12-0.86,28.23-1.28,42.05c-22.16,3.32-44.18,5.96-65.92,10.08
		c-21.87,4.14-43.47,9.75-65.19,14.72c-0.11-0.32-0.3-0.62-0.31-0.93c-1.25-25.33-2.54-50.66-3.61-76c-0.06-1.41,1.4-3.34,2.7-4.3
		c7.55-5.59,15.93-10.24,22.8-16.56c33.82-31.09,42.55-75.86,21.58-117.12c-12.86-25.29-31.87-45.29-54.02-62.64
		c-3.21-2.51-5.35-2.77-8.18,0.11c-9.8,9.93-20.38,19.18-29.38,29.78c-16.73,19.69-29.08,41.76-32.27,68.07
		c-3.01,24.79,3.34,46.93,18.26,66.75c9.77,12.98,22.69,22.15,36.5,30.3c1.58,0.93,3.32,3.29,3.29,4.96
		c-0.58,27.15-1.51,54.3-2.12,81.46c-0.08,3.46-1.4,4.56-4.39,5.65c-14.93,5.47-30.03,10.61-44.57,17.01
		c-59.82,26.29-109.97,66.3-156.16,111.68c-12.27,12.04-23.2,25.35-33.13,41.21c59.19-28.78,118.43-53.52,179.65-73.33
		c84.74-27.41,171.27-46.54,260.13-53.93c30.42-2.53,61-4.57,91.49-4.34c34.08,0.26,68.19,2.62,102.16,5.47
		c24.34,2.05,48.61,5.72,72.7,9.9c47.35,8.21,93.49,21.24,138.8,37.21c12.77,4.5,25.41,9.4,38.99,14.45
		C940.73,742.23,940.17,741.32,939.4,740.64z M688.84,620.79c-21.8-3.61-43.23-7.17-65.43-10.86c0-17.68-0.04-35.37,0.04-53.05
		c0.01-2.4,0.35-4.85,0.92-7.18c4.08-16.48,19.98-27.93,35.77-25.88c15.84,2.06,28.62,16.99,28.68,33.73
		C688.89,578.49,688.84,599.43,688.84,620.79z"/>
	<path class="st0" d="M656.17,405.58c-39.29,35.23-78.12,70.05-117.4,105.27c-2.12,1.9-5.32,1.96-7.5,0.12
		c-5.52-4.64-10.98-9.22-16.75-14.07c8.24-7.28,15.9-14.02,23.53-20.79c31.01-27.5,62-55.02,93.03-82.5
		c6.81-6.03,13.91-11.75,20.56-17.96c2.88-2.69,4.65-2.17,7.33,0.09c18.31,15.34,36.74,30.55,55.13,45.79
		c0.73,0.6,1.48,1.18,3.05,2.42c0-9.79,0-18.79,0-27.78c0-7.14,0-7.14,7.23-7.15c7.97,0,15.95,0.18,23.92-0.07
		c3.95-0.13,5.02,1.39,5,5.12c-0.13,18.87,0.05,37.75-0.14,56.62c-0.03,3.44,1,5.7,3.57,7.87c13.16,11.12,26.21,22.38,39.28,33.6
		c1.58,1.36,3.11,2.79,5.23,4.7c-6.42,5.98-12.21,11.6-18.56,17.05c-1.18,0.89-4.03,0.23-5.17-0.76
		c-17.85-15.64-35.57-31.45-53.32-47.21C701.72,445.99,679.24,426.04,656.17,405.58z"/>
</g>
</svg>
