<?xml version="1.0" encoding="utf-8"?>
<!-- Generator: Adobe Illustrator 26.0.0, SVG Export Plug-In . SVG Version: 6.00 Build 0)  -->
<svg version="1.1" id="Layer_1" xmlns="http://www.w3.org/2000/svg" xmlns:xlink="http://www.w3.org/1999/xlink" x="0px" y="0px"
	 viewBox="0 0 1000 1000" style="enable-background:new 0 0 1000 1000;" xml:space="preserve">
<style type="text/css">
	.st0{fill:#5C8CC4;}
</style>
<g>
	<g>
		<path class="st0" d="M281.95,556.81c-2.46-2.2-4.77-4.6-7.42-6.54c-10.29-7.52-21.53-13.24-33.73-17c-0.98-0.3-1.2-0.75-1.19-1.69
			c0.03-9.22,0.01-18.44,0.04-27.66c0-0.88-0.24-1.49-0.92-2.07c-7.68-6.43-15.34-12.88-22.99-19.35c-0.61-0.52-1-0.46-1.56,0.04
			c-1.84,1.63-3.72,3.21-5.58,4.81c-5.66,4.83-11.31,9.68-16.99,14.49c-0.62,0.52-0.85,1.06-0.85,1.86
			c0.03,6.45,0.01,12.91,0.01,19.36v1.27h-16.05c-0.03-0.59-0.06-1.04-0.08-1.49c-0.14-4.11-0.29-8.21-0.43-12.32
			c-0.16-4.72-0.34-9.44-0.46-14.16c-0.01-0.42,0.22-1,0.54-1.23c3.8-2.78,7.24-5.93,10.29-9.51c8.87-10.41,11.38-22.03,6.23-34.86
			c-3.95-9.85-11.32-17.02-19.49-23.45c-0.21-0.17-0.82-0.12-1.06,0.07c-6.85,5.31-12.91,11.35-17.28,18.92
			c-3.78,6.54-5.76,13.52-4.85,21.12c0.74,6.16,3.16,11.65,6.86,16.6c3.22,4.3,7.27,7.66,11.81,10.47c0.68,0.42,0.98,0.83,0.95,1.72
			c-0.22,6.14-0.35,12.28-0.51,18.42c-0.09,3.33-0.2,6.66-0.3,9.93c-5.23,0.78-10.43,1.41-15.56,2.38
			c-5.16,0.98-10.26,2.3-15.39,3.47c-0.03-0.08-0.07-0.15-0.07-0.22c-0.3-5.98-0.6-11.96-0.85-17.94c-0.01-0.33,0.33-0.79,0.64-1.02
			c1.78-1.32,3.76-2.42,5.38-3.91c7.98-7.34,10.04-17.91,5.09-27.65c-3.04-5.97-7.52-10.69-12.75-14.79
			c-0.76-0.59-1.26-0.65-1.93,0.03c-2.31,2.34-4.81,4.53-6.94,7.03c-3.95,4.65-6.86,9.86-7.62,16.07
			c-0.71,5.85,0.79,11.08,4.31,15.76c2.31,3.06,5.36,5.23,8.62,7.15c0.37,0.22,0.78,0.78,0.78,1.17c-0.14,6.41-0.36,12.82-0.5,19.23
			c-0.02,0.82-0.33,1.08-1.04,1.33c-3.52,1.29-7.09,2.5-10.52,4.02c-14.12,6.21-25.96,15.65-36.86,26.36
			c-2.9,2.84-5.48,5.98-7.82,9.73c13.97-6.79,27.96-12.63,42.41-17.31c20-6.47,40.43-10.99,61.41-12.73
			c7.18-0.6,14.4-1.08,21.6-1.02c8.04,0.06,16.1,0.62,24.12,1.29c5.75,0.48,11.47,1.35,17.16,2.34c11.18,1.94,22.07,5.01,32.76,8.78
			c3.01,1.06,6,2.22,9.2,3.41C282.26,557.18,282.13,556.97,281.95,556.81z M222.8,528.51c-5.15-0.85-10.2-1.69-15.45-2.56
			c0-4.17-0.01-8.35,0.01-12.52c0-0.57,0.08-1.14,0.22-1.69c0.96-3.89,4.72-6.59,8.44-6.11c3.74,0.49,6.76,4.01,6.77,7.96
			C222.81,518.53,222.8,523.47,222.8,528.51z"/>
		<path class="st0" d="M215.09,477.71c-9.27,8.32-18.44,16.54-27.71,24.85c-0.5,0.45-1.26,0.46-1.77,0.03
			c-1.3-1.1-2.59-2.18-3.95-3.32c1.95-1.72,3.75-3.31,5.55-4.91c7.32-6.49,14.64-12.99,21.96-19.48c1.61-1.42,3.28-2.77,4.85-4.24
			c0.68-0.63,1.1-0.51,1.73,0.02c4.32,3.62,8.67,7.21,13.01,10.81c0.17,0.14,0.35,0.28,0.72,0.57c0-2.31,0-4.43,0-6.56
			c0-1.69,0-1.69,1.71-1.69c1.88,0,3.77,0.04,5.65-0.02c0.93-0.03,1.19,0.33,1.18,1.21c-0.03,4.46,0.01,8.91-0.03,13.37
			c-0.01,0.81,0.24,1.34,0.84,1.86c3.11,2.62,6.19,5.28,9.27,7.93c0.37,0.32,0.73,0.66,1.23,1.11c-1.51,1.41-2.88,2.74-4.38,4.02
			c-0.28,0.21-0.95,0.05-1.22-0.18c-4.21-3.69-8.4-7.42-12.59-11.14C225.84,487.25,220.53,482.54,215.09,477.71z"/>
	</g>
	<g>
		<path class="st0" d="M341.8,542.02l-30.48-84.26h13.91l16.4,46.88c1.21,3.62,2.59,8.05,4.16,13.29
			c1.56,5.24,3.34,11.42,5.34,18.55h-2.66c1.96-7.28,3.7-13.5,5.23-18.66s2.87-9.56,4.04-13.18l15.95-46.88h13.97l-30.08,84.26
			H341.8z"/>
		<path class="st0" d="M433.46,543.32c-6.75,0-12.65-1.3-17.7-3.9c-5.05-2.6-8.96-6.17-11.73-10.72c-2.77-4.54-4.16-9.75-4.16-15.63
			v-55.3h12.89V512c0,3.81,0.84,7.18,2.52,10.12s4.06,5.26,7.15,6.96s6.77,2.54,11.03,2.54c4.22,0,7.87-0.85,10.94-2.54
			c3.07-1.7,5.44-4.02,7.1-6.96s2.49-6.31,2.49-10.12v-54.23h12.95v55.3c0,5.88-1.39,11.09-4.16,15.63s-6.67,8.12-11.71,10.72
			C446.04,542.02,440.17,543.32,433.46,543.32z"/>
		<path class="st0" d="M485.6,542.02v-84.26h19l18.38,48.35c0.53,1.43,1.12,3.24,1.78,5.43c0.66,2.19,1.35,4.56,2.06,7.12
			c0.72,2.56,1.39,5.09,2.04,7.58c0.64,2.49,1.21,4.73,1.7,6.73h-2.71c0.49-1.88,1.05-4.06,1.7-6.53c0.64-2.47,1.32-4.99,2.04-7.55
			s1.41-4.98,2.09-7.24c0.68-2.26,1.28-4.11,1.81-5.54l18.1-48.35h19.11v84.26h-12.84v-45.35c0-1.73,0.02-3.81,0.06-6.22
			s0.08-4.97,0.14-7.66s0.11-5.42,0.17-8.17s0.1-5.39,0.14-7.92h0.96c-0.75,2.75-1.57,5.59-2.46,8.51s-1.75,5.74-2.6,8.45
			s-1.66,5.19-2.43,7.44c-0.77,2.24-1.42,4.1-1.95,5.57l-17.25,45.35H523.6l-17.47-45.35c-0.57-1.43-1.22-3.25-1.95-5.46
			s-1.54-4.66-2.4-7.35c-0.87-2.7-1.75-5.5-2.66-8.43c-0.9-2.92-1.81-5.83-2.71-8.74h1.13c0.07,2.3,0.14,4.8,0.2,7.49
			s0.11,5.42,0.17,8.17c0.06,2.75,0.11,5.36,0.17,7.83c0.06,2.47,0.08,4.63,0.08,6.47V542H485.6V542.02z"/>
		<path class="st0" d="M604.18,457.76v84.26h-12.89v-84.26H604.18z"/>
		<path class="st0" d="M649.98,543.43c-5.73,0-10.73-0.95-14.99-2.86c-4.26-1.9-7.61-4.56-10.04-7.97s-3.8-7.38-4.1-11.9h8.2
			c0.3,3.36,1.4,6.17,3.31,8.45s4.39,4.01,7.46,5.2s6.46,1.78,10.15,1.78c4.18,0,7.89-0.7,11.11-2.09s5.76-3.34,7.61-5.85
			c1.85-2.51,2.77-5.42,2.77-8.74c0-2.79-0.73-5.14-2.18-7.04s-3.49-3.51-6.11-4.83c-2.62-1.32-5.7-2.49-9.25-3.51l-9.95-2.88
			c-6.71-1.96-11.88-4.71-15.49-8.26c-3.62-3.54-5.43-7.97-5.43-13.29c0-4.56,1.22-8.58,3.65-12.04c2.43-3.47,5.74-6.17,9.92-8.11
			s8.88-2.91,14.08-2.91c5.32,0,10,0.98,14.05,2.94s7.26,4.62,9.61,7.97c2.36,3.36,3.63,7.18,3.82,11.48h-7.86
			c-0.49-4.67-2.54-8.37-6.16-11.08s-8.18-4.07-13.68-4.07c-3.85,0-7.24,0.67-10.18,2.01s-5.24,3.17-6.9,5.49
			c-1.66,2.32-2.49,4.99-2.49,8c0,2.9,0.82,5.33,2.46,7.27s3.74,3.53,6.3,4.78c2.56,1.24,5.18,2.26,7.86,3.05l8.82,2.54
			c2.71,0.75,5.43,1.72,8.14,2.88c2.71,1.17,5.18,2.63,7.41,4.38c2.22,1.75,4.01,3.88,5.37,6.39s2.04,5.49,2.04,8.96
			c0,4.52-1.17,8.59-3.51,12.21s-5.7,6.47-10.09,8.54C661.34,542.39,656.09,543.43,649.98,543.43z"/>
		<path class="st0" d="M697.82,542.02v-84.26h8.03v37.6h47.39v-37.6h8.03v84.26h-8.03v-39.47h-47.39v39.47H697.82z"/>
		<path class="st0" d="M816.4,543.15c-7.12,0-13.44-1.77-18.94-5.32c-5.5-3.54-9.82-8.55-12.95-15.01s-4.69-14.09-4.69-22.87
			c0-8.82,1.56-16.47,4.69-22.96c3.13-6.48,7.44-11.5,12.95-15.04c5.5-3.54,11.82-5.32,18.94-5.32c7.09,0,13.38,1.77,18.89,5.32
			c5.5,3.54,9.81,8.56,12.92,15.04s4.67,14.14,4.67,22.96c0,8.78-1.56,16.42-4.67,22.9c-3.11,6.48-7.42,11.49-12.92,15.01
			C829.78,541.38,823.49,543.15,816.4,543.15z M816.4,535.63c5.47,0,10.36-1.41,14.67-4.24s7.73-6.91,10.24-12.24
			s3.76-11.73,3.76-19.2c0-7.5-1.25-13.93-3.76-19.28s-5.92-9.44-10.24-12.27s-9.21-4.24-14.67-4.24c-5.5,0-10.42,1.41-14.76,4.24
			s-7.76,6.92-10.26,12.27c-2.51,5.35-3.76,11.78-3.76,19.28c0,7.43,1.25,13.81,3.76,19.14s5.93,9.42,10.26,12.27
			C805.98,534.2,810.9,535.63,816.4,535.63z"/>
		<path class="st0" d="M871.42,542.02v-84.26h27.48c5.96,0,10.95,1.15,14.99,3.45c4.03,2.3,7.08,5.41,9.13,9.33
			c2.05,3.92,3.08,8.35,3.08,13.29s-1.03,9.39-3.08,13.34c-2.06,3.96-5.09,7.09-9.1,9.39s-9,3.45-14.96,3.45h-21.43v-7.18h21.09
			c4.37,0,8-0.82,10.88-2.46s5.04-3.89,6.47-6.76c1.43-2.86,2.15-6.12,2.15-9.78c0-3.62-0.72-6.86-2.15-9.73
			c-1.43-2.86-3.6-5.11-6.5-6.73c-2.9-1.62-6.54-2.43-10.91-2.43h-19.11v77.08H871.42z"/>
	</g>
</g>
</svg>
