<?xml version="1.0" encoding="utf-8"?>
<!-- Generator: Adobe Illustrator 26.0.0, SVG Export Plug-In . SVG Version: 6.00 Build 0)  -->
<svg version="1.1" id="Layer_1" xmlns="http://www.w3.org/2000/svg" xmlns:xlink="http://www.w3.org/1999/xlink" x="0px" y="0px"
	 viewBox="0 0 1000 1000" style="enable-background:new 0 0 1000 1000;" xml:space="preserve">
<style type="text/css">
	.st0{fill:#5C8CC4;}
	.st1{fill:none;stroke:#141516;stroke-miterlimit:10;}
</style>
<g>
	<path class="st0" d="M-910.42,948.09c-1.25-1.12-2.43-2.34-3.78-3.33c-5.24-3.83-10.97-6.74-17.18-8.66
		c-0.5-0.15-0.61-0.38-0.61-0.86c0.02-4.7,0-9.39,0.02-14.09c0-0.45-0.12-0.76-0.47-1.05c-3.91-3.28-7.81-6.56-11.71-9.86
		c-0.31-0.26-0.51-0.23-0.8,0.02c-0.94,0.83-1.89,1.64-2.84,2.45c-2.88,2.46-5.76,4.93-8.65,7.38c-0.32,0.27-0.43,0.54-0.43,0.95
		c0.01,3.29,0.01,6.57,0.01,9.86v0.65h-8.18c-0.02-0.3-0.03-0.53-0.04-0.76c-0.07-2.09-0.15-4.18-0.22-6.27
		c-0.08-2.4-0.17-4.81-0.24-7.21c-0.01-0.21,0.11-0.51,0.27-0.63c1.93-1.42,3.69-3.02,5.24-4.84c4.52-5.3,5.8-11.22,3.17-17.76
		c-2.01-5.02-5.77-8.67-9.93-11.94c-0.11-0.09-0.42-0.06-0.54,0.03c-3.49,2.71-6.58,5.78-8.8,9.64c-1.92,3.33-2.93,6.88-2.47,10.76
		c0.38,3.14,1.61,5.94,3.49,8.45c1.64,2.19,3.7,3.9,6.02,5.33c0.35,0.21,0.5,0.42,0.48,0.88c-0.11,3.13-0.18,6.25-0.26,9.38
		c-0.05,1.7-0.1,3.39-0.15,5.06c-2.66,0.4-5.31,0.72-7.93,1.21c-2.63,0.5-5.23,1.17-7.84,1.77c-0.01-0.04-0.04-0.07-0.04-0.11
		c-0.15-3.05-0.31-6.09-0.43-9.14c-0.01-0.17,0.17-0.4,0.32-0.52c0.91-0.67,1.92-1.23,2.74-1.99c4.07-3.74,5.12-9.12,2.59-14.08
		c-1.55-3.04-3.83-5.45-6.5-7.53c-0.39-0.3-0.64-0.33-0.98,0.01c-1.18,1.19-2.45,2.31-3.53,3.58c-2.01,2.37-3.5,5.02-3.88,8.18
		c-0.36,2.98,0.4,5.64,2.2,8.03c1.17,1.56,2.73,2.66,4.39,3.64c0.19,0.11,0.4,0.4,0.4,0.6c-0.07,3.26-0.18,6.53-0.25,9.79
		c-0.01,0.42-0.17,0.55-0.53,0.68c-1.8,0.66-3.61,1.28-5.36,2.05c-7.19,3.16-13.22,7.97-18.78,13.43c-1.48,1.45-2.79,3.05-3.98,4.95
		c7.12-3.46,14.24-6.43,21.6-8.82c10.19-3.3,20.59-5.6,31.28-6.48c3.66-0.3,7.33-0.55,11-0.52c4.1,0.03,8.2,0.32,12.28,0.66
		c2.93,0.25,5.84,0.69,8.74,1.19c5.69,0.99,11.24,2.55,16.69,4.47c1.54,0.54,3.06,1.13,4.69,1.74
		C-910.26,948.28-910.32,948.17-910.42,948.09z M-940.54,933.68c-2.62-0.43-5.2-0.86-7.87-1.31c0-2.13,0-4.25,0-6.38
		c0-0.29,0.04-0.58,0.11-0.86c0.49-1.98,2.4-3.36,4.3-3.11c1.9,0.25,3.44,2.04,3.45,4.06
		C-940.54,928.59-940.54,931.11-940.54,933.68z"/>
	<path class="st0" d="M-944.47,907.8c-4.72,4.24-9.39,8.42-14.12,12.66c-0.26,0.23-0.64,0.24-0.9,0.01
		c-0.66-0.56-1.32-1.11-2.01-1.69c0.99-0.87,1.91-1.69,2.83-2.5c3.73-3.31,7.45-6.62,11.19-9.92c0.82-0.73,1.67-1.41,2.47-2.16
		c0.35-0.32,0.56-0.26,0.88,0.01c2.2,1.84,4.42,3.67,6.63,5.51c0.09,0.07,0.18,0.14,0.37,0.29c0-1.18,0-2.26,0-3.34
		c0-0.86,0-0.86,0.87-0.86c0.96,0,1.92,0.02,2.88-0.01c0.48-0.02,0.6,0.17,0.6,0.62c-0.02,2.27,0.01,4.54-0.02,6.81
		c0,0.41,0.12,0.68,0.43,0.95c1.58,1.34,3.15,2.69,4.72,4.04c0.19,0.16,0.37,0.34,0.63,0.56c-0.77,0.72-1.47,1.39-2.23,2.05
		c-0.14,0.11-0.48,0.03-0.62-0.09c-2.15-1.88-4.28-3.78-6.41-5.68C-939,912.66-941.7,910.26-944.47,907.8z"/>
</g>
<g>
	<g>
		<path class="st0" d="M1437.08,556.81c-2.46-2.2-4.77-4.6-7.42-6.54c-10.29-7.52-21.53-13.24-33.73-17
			c-0.98-0.3-1.2-0.75-1.19-1.69c0.03-9.22,0.01-18.44,0.04-27.66c0-0.88-0.24-1.49-0.92-2.07c-7.68-6.43-15.34-12.88-22.99-19.35
			c-0.61-0.52-1-0.46-1.56,0.04c-1.84,1.63-3.72,3.21-5.58,4.81c-5.66,4.83-11.31,9.68-16.99,14.49c-0.62,0.52-0.85,1.06-0.85,1.86
			c0.03,6.45,0.01,12.91,0.01,19.36v1.27h-16.05c-0.03-0.59-0.06-1.04-0.08-1.49c-0.14-4.11-0.29-8.21-0.43-12.32
			c-0.16-4.72-0.34-9.44-0.46-14.16c-0.01-0.42,0.22-1,0.54-1.23c3.8-2.78,7.24-5.93,10.29-9.51c8.87-10.41,11.38-22.03,6.23-34.86
			c-3.95-9.85-11.32-17.02-19.49-23.45c-0.21-0.17-0.82-0.12-1.06,0.07c-6.85,5.31-12.91,11.35-17.28,18.92
			c-3.78,6.54-5.76,13.52-4.85,21.12c0.74,6.16,3.16,11.65,6.86,16.6c3.22,4.3,7.27,7.66,11.81,10.47c0.68,0.42,0.98,0.83,0.95,1.72
			c-0.22,6.14-0.35,12.28-0.51,18.42c-0.09,3.33-0.2,6.66-0.3,9.93c-5.23,0.78-10.43,1.41-15.56,2.38
			c-5.16,0.98-10.26,2.3-15.39,3.47c-0.03-0.08-0.07-0.15-0.07-0.22c-0.3-5.98-0.6-11.96-0.85-17.94c-0.01-0.33,0.33-0.79,0.64-1.02
			c1.78-1.32,3.76-2.42,5.38-3.91c7.98-7.34,10.04-17.91,5.09-27.65c-3.04-5.97-7.52-10.69-12.75-14.79
			c-0.76-0.59-1.26-0.65-1.93,0.03c-2.31,2.34-4.81,4.53-6.94,7.03c-3.95,4.65-6.86,9.86-7.62,16.07
			c-0.71,5.85,0.79,11.08,4.31,15.76c2.31,3.06,5.36,5.23,8.62,7.15c0.37,0.22,0.78,0.78,0.78,1.17c-0.14,6.41-0.36,12.82-0.5,19.23
			c-0.02,0.82-0.33,1.08-1.04,1.33c-3.52,1.29-7.09,2.5-10.52,4.02c-14.12,6.21-25.96,15.65-36.86,26.36
			c-2.9,2.84-5.48,5.98-7.82,9.73c13.97-6.79,27.96-12.63,42.41-17.31c20-6.47,40.43-10.99,61.41-12.73
			c7.18-0.6,14.4-1.08,21.6-1.02c8.04,0.06,16.1,0.62,24.12,1.29c5.75,0.48,11.47,1.35,17.16,2.34c11.18,1.94,22.07,5.01,32.76,8.78
			c3.01,1.06,6,2.22,9.2,3.41C1437.39,557.18,1437.26,556.97,1437.08,556.81z M1377.93,528.51c-5.15-0.85-10.2-1.69-15.45-2.56
			c0-4.17-0.01-8.35,0.01-12.52c0-0.57,0.08-1.14,0.22-1.69c0.96-3.89,4.72-6.59,8.44-6.11c3.74,0.49,6.76,4.01,6.77,7.96
			C1377.94,518.53,1377.93,523.47,1377.93,528.51z"/>
		<path class="st0" d="M1370.22,477.71c-9.27,8.32-18.44,16.54-27.71,24.85c-0.5,0.45-1.26,0.46-1.77,0.03
			c-1.3-1.1-2.59-2.18-3.95-3.32c1.95-1.72,3.75-3.31,5.55-4.91c7.32-6.49,14.64-12.99,21.96-19.48c1.61-1.42,3.28-2.77,4.85-4.24
			c0.68-0.63,1.1-0.51,1.73,0.02c4.32,3.62,8.67,7.21,13.01,10.81c0.17,0.14,0.35,0.28,0.72,0.57c0-2.31,0-4.43,0-6.56
			c0-1.69,0-1.69,1.71-1.69c1.88,0,3.77,0.04,5.65-0.02c0.93-0.03,1.19,0.33,1.18,1.21c-0.03,4.46,0.01,8.91-0.03,13.37
			c-0.01,0.81,0.24,1.34,0.84,1.86c3.11,2.62,6.19,5.28,9.27,7.93c0.37,0.32,0.73,0.66,1.23,1.11c-1.51,1.41-2.88,2.74-4.38,4.02
			c-0.28,0.21-0.95,0.05-1.22-0.18c-4.21-3.69-8.4-7.42-12.59-11.14C1380.97,487.25,1375.66,482.54,1370.22,477.71z"/>
	</g>
	<g>
		<path class="st0" d="M1496.93,542.02l-30.48-84.26h13.91l16.4,46.88c1.21,3.62,2.59,8.05,4.16,13.29
			c1.56,5.24,3.34,11.42,5.34,18.55h-2.66c1.96-7.28,3.7-13.5,5.23-18.66s2.87-9.56,4.04-13.18l15.95-46.88h13.97l-30.08,84.26
			H1496.93z"/>
		<path class="st0" d="M1588.59,543.32c-6.75,0-12.65-1.3-17.7-3.9c-5.05-2.6-8.96-6.17-11.73-10.72
			c-2.77-4.54-4.16-9.75-4.16-15.63v-55.3h12.89v54.23c0,3.81,0.84,7.18,2.52,10.12c1.68,2.94,4.06,5.26,7.15,6.96
			c3.09,1.7,6.77,2.54,11.03,2.54c4.22,0,7.87-0.85,10.94-2.54c3.07-1.7,5.44-4.02,7.1-6.96c1.66-2.94,2.49-6.31,2.49-10.12v-54.23
			h12.95v55.3c0,5.88-1.39,11.09-4.16,15.63c-2.77,4.54-6.67,8.12-11.71,10.72C1601.17,542.02,1595.3,543.32,1588.59,543.32z"/>
		<path class="st0" d="M1640.73,542.02v-84.26h19l18.38,48.35c0.53,1.43,1.12,3.24,1.78,5.43c0.66,2.19,1.35,4.56,2.06,7.12
			c0.72,2.56,1.39,5.09,2.04,7.58c0.64,2.49,1.21,4.73,1.7,6.73h-2.71c0.49-1.88,1.05-4.06,1.7-6.53c0.64-2.47,1.32-4.99,2.04-7.55
			c0.72-2.56,1.41-4.98,2.09-7.24c0.68-2.26,1.28-4.11,1.81-5.54l18.1-48.35h19.11v84.26h-12.84v-45.35c0-1.73,0.02-3.81,0.06-6.22
			c0.04-2.41,0.08-4.97,0.14-7.66c0.06-2.69,0.11-5.42,0.17-8.17c0.06-2.75,0.1-5.39,0.14-7.92h0.96c-0.75,2.75-1.57,5.59-2.46,8.51
			c-0.89,2.92-1.75,5.74-2.6,8.45s-1.66,5.19-2.43,7.44c-0.77,2.24-1.42,4.1-1.95,5.57l-17.25,45.35h-11.03l-17.47-45.35
			c-0.57-1.43-1.22-3.25-1.95-5.46c-0.73-2.21-1.54-4.66-2.4-7.35c-0.87-2.7-1.75-5.5-2.66-8.43c-0.9-2.92-1.81-5.83-2.71-8.74h1.13
			c0.07,2.3,0.14,4.8,0.2,7.49s0.11,5.42,0.17,8.17c0.06,2.75,0.11,5.36,0.17,7.83c0.06,2.47,0.08,4.63,0.08,6.47v45.35H1640.73z"/>
		<path class="st0" d="M1759.31,457.76v84.26h-12.89v-84.26H1759.31z"/>
		<path class="st0" d="M1805.11,543.43c-5.73,0-10.73-0.95-14.99-2.86c-4.26-1.9-7.61-4.56-10.04-7.97c-2.43-3.41-3.8-7.38-4.1-11.9
			h8.2c0.3,3.36,1.4,6.17,3.31,8.45s4.39,4.01,7.46,5.2c3.07,1.19,6.46,1.78,10.15,1.78c4.18,0,7.89-0.7,11.11-2.09
			c3.22-1.39,5.76-3.34,7.61-5.85c1.85-2.51,2.77-5.42,2.77-8.74c0-2.79-0.73-5.14-2.18-7.04s-3.49-3.51-6.11-4.83
			c-2.62-1.32-5.7-2.49-9.25-3.51l-9.95-2.88c-6.71-1.96-11.88-4.71-15.49-8.26c-3.62-3.54-5.43-7.97-5.43-13.29
			c0-4.56,1.22-8.58,3.65-12.04c2.43-3.47,5.74-6.17,9.92-8.11s8.88-2.91,14.08-2.91c5.32,0,10,0.98,14.05,2.94
			c4.05,1.96,7.26,4.62,9.61,7.97c2.36,3.36,3.63,7.18,3.82,11.48h-7.86c-0.49-4.67-2.54-8.37-6.16-11.08
			c-3.62-2.71-8.18-4.07-13.68-4.07c-3.85,0-7.24,0.67-10.18,2.01c-2.94,1.34-5.24,3.17-6.9,5.49c-1.66,2.32-2.49,4.99-2.49,8
			c0,2.9,0.82,5.33,2.46,7.27c1.64,1.94,3.74,3.53,6.3,4.78c2.56,1.24,5.18,2.26,7.86,3.05l8.82,2.54c2.71,0.75,5.43,1.72,8.14,2.88
			c2.71,1.17,5.18,2.63,7.41,4.38c2.22,1.75,4.01,3.88,5.37,6.39s2.04,5.49,2.04,8.96c0,4.52-1.17,8.59-3.51,12.21
			c-2.34,3.62-5.7,6.47-10.09,8.54C1816.47,542.39,1811.22,543.43,1805.11,543.43z"/>
		<path class="st0" d="M1852.95,542.02v-84.26h8.03v37.6h47.39v-37.6h8.03v84.26h-8.03v-39.47h-47.39v39.47H1852.95z"/>
		<path class="st0" d="M1971.53,543.15c-7.12,0-13.44-1.77-18.94-5.32c-5.5-3.54-9.82-8.55-12.95-15.01
			c-3.13-6.46-4.69-14.09-4.69-22.87c0-8.82,1.56-16.47,4.69-22.96c3.13-6.48,7.44-11.5,12.95-15.04c5.5-3.54,11.82-5.32,18.94-5.32
			c7.09,0,13.38,1.77,18.89,5.32c5.5,3.54,9.81,8.56,12.92,15.04c3.11,6.48,4.67,14.14,4.67,22.96c0,8.78-1.56,16.42-4.67,22.9
			c-3.11,6.48-7.42,11.49-12.92,15.01C1984.91,541.38,1978.62,543.15,1971.53,543.15z M1971.53,535.63c5.47,0,10.36-1.41,14.67-4.24
			s7.73-6.91,10.24-12.24c2.51-5.33,3.76-11.73,3.76-19.2c0-7.5-1.25-13.93-3.76-19.28c-2.51-5.35-5.92-9.44-10.24-12.27
			c-4.32-2.83-9.21-4.24-14.67-4.24c-5.5,0-10.42,1.41-14.76,4.24c-4.34,2.83-7.76,6.92-10.26,12.27
			c-2.51,5.35-3.76,11.78-3.76,19.28c0,7.43,1.25,13.81,3.76,19.14c2.51,5.33,5.93,9.42,10.26,12.27
			C1961.11,534.2,1966.03,535.63,1971.53,535.63z"/>
		<path class="st0" d="M2026.55,542.02v-84.26h27.48c5.96,0,10.95,1.15,14.99,3.45c4.03,2.3,7.08,5.41,9.13,9.33
			c2.05,3.92,3.08,8.35,3.08,13.29s-1.03,9.39-3.08,13.34c-2.06,3.96-5.09,7.09-9.1,9.39s-9,3.45-14.96,3.45h-21.43v-7.18h21.09
			c4.37,0,8-0.82,10.88-2.46s5.04-3.89,6.47-6.76c1.43-2.86,2.15-6.12,2.15-9.78c0-3.62-0.72-6.86-2.15-9.73
			c-1.43-2.86-3.6-5.11-6.5-6.73c-2.9-1.62-6.54-2.43-10.91-2.43h-19.11v77.08H2026.55z"/>
	</g>
</g>
<g>
	<g>
		<path class="st0" d="M651.76,523.98c-3.77-3.37-7.31-7.05-11.37-10.02c-15.78-11.52-33-20.29-51.69-26.05
			c-1.5-0.46-1.83-1.15-1.83-2.59c0.05-14.13,0.01-28.26,0.06-42.39c0-1.35-0.37-2.29-1.41-3.17
			c-11.77-9.86-23.51-19.74-35.23-29.66c-0.93-0.79-1.53-0.71-2.4,0.07c-2.81,2.5-5.69,4.92-8.56,7.37
			c-8.67,7.41-17.33,14.83-26.03,22.21c-0.95,0.8-1.31,1.63-1.3,2.86c0.04,9.89,0.02,19.78,0.02,29.67v1.94H487.4
			c-0.05-0.9-0.1-1.59-0.12-2.29c-0.22-6.29-0.44-12.59-0.66-18.88c-0.25-7.24-0.52-14.47-0.71-21.7c-0.02-0.64,0.34-1.53,0.82-1.89
			c5.82-4.26,11.1-9.08,15.77-14.57c13.6-15.95,17.44-33.77,9.55-53.43c-6.06-15.09-17.35-26.09-29.87-35.94
			c-0.33-0.26-1.25-0.18-1.62,0.1c-10.49,8.14-19.79,17.39-26.49,29c-5.79,10.03-8.82,20.72-7.43,32.37
			c1.13,9.44,4.84,17.86,10.51,25.44c4.93,6.58,11.15,11.75,18.11,16.05c1.04,0.64,1.5,1.27,1.45,2.64
			c-0.34,9.41-0.53,18.82-0.79,28.23c-0.14,5.11-0.31,10.21-0.46,15.21c-8.02,1.2-15.98,2.16-23.85,3.65
			c-7.91,1.5-15.73,3.53-23.59,5.33c-0.04-0.12-0.11-0.22-0.11-0.34c-0.45-9.16-0.92-18.33-1.31-27.5
			c-0.02-0.51,0.51-1.21,0.98-1.56c2.73-2.02,5.76-3.7,8.25-5.99c12.24-11.25,15.39-27.45,7.81-42.37
			c-4.65-9.15-11.53-16.39-19.54-22.66c-1.16-0.91-1.94-1-2.96,0.04c-3.55,3.59-7.37,6.94-10.63,10.77
			c-6.05,7.12-10.52,15.11-11.68,24.63c-1.09,8.97,1.21,16.98,6.61,24.15c3.53,4.7,8.21,8.01,13.21,10.96
			c0.57,0.34,1.2,1.19,1.19,1.79c-0.21,9.82-0.55,19.65-0.77,29.47c-0.03,1.25-0.51,1.65-1.59,2.04c-5.4,1.98-10.86,3.84-16.13,6.15
			c-21.64,9.51-39.79,23.99-56.5,40.4c-4.44,4.36-8.39,9.17-11.99,14.91c21.41-10.41,42.85-19.36,65-26.53
			c30.66-9.92,61.96-16.84,94.11-19.51c11.01-0.92,22.07-1.65,33.1-1.57c12.33,0.09,24.67,0.95,36.96,1.98
			c8.81,0.74,17.59,2.07,26.3,3.58c17.13,2.97,33.82,7.68,50.22,13.46c4.62,1.63,9.19,3.4,14.11,5.23
			C652.24,524.56,652.04,524.23,651.76,523.98z M561.11,480.62c-7.89-1.31-15.64-2.59-23.67-3.93c0-6.4-0.01-12.8,0.01-19.19
			c0-0.87,0.13-1.75,0.33-2.6c1.48-5.96,7.23-10.1,12.94-9.36c5.73,0.75,10.35,6.15,10.38,12.2
			C561.13,465.32,561.11,472.89,561.11,480.62z"/>
		<path class="st0" d="M549.29,402.76c-14.21,12.75-28.26,25.35-42.47,38.09c-0.77,0.69-1.93,0.71-2.71,0.04
			c-2-1.68-3.97-3.34-6.06-5.09c2.98-2.63,5.75-5.07,8.51-7.52c11.22-9.95,22.43-19.91,33.66-29.85c2.46-2.18,5.03-4.25,7.44-6.5
			c1.04-0.97,1.68-0.78,2.65,0.03c6.62,5.55,13.29,11.05,19.94,16.57c0.26,0.22,0.54,0.43,1.1,0.88c0-3.54,0-6.8,0-10.05
			c0-2.58,0-2.58,2.62-2.59c2.88,0,5.77,0.07,8.65-0.03c1.43-0.05,1.82,0.5,1.81,1.85c-0.05,6.83,0.02,13.66-0.05,20.48
			c-0.01,1.25,0.36,2.06,1.29,2.85c4.76,4.02,9.48,8.1,14.21,12.16c0.57,0.49,1.12,1.01,1.89,1.7c-2.32,2.16-4.42,4.2-6.72,6.17
			c-0.43,0.32-1.46,0.08-1.87-0.28c-6.46-5.66-12.87-11.38-19.29-17.08C565.77,417.38,557.64,410.16,549.29,402.76z"/>
	</g>
	<g>
		<path class="st0" d="M197.1,673.08l-33.34-92.16h15.22l17.94,51.28c1.32,3.96,2.83,8.8,4.55,14.54
			c1.71,5.73,3.66,12.49,5.85,20.29h-2.91c2.14-7.96,4.05-14.76,5.72-20.41s3.14-10.45,4.42-14.41l17.44-51.28h15.28l-32.91,92.16
			H197.1z"/>
		<path class="st0" d="M297.36,674.5c-7.38,0-13.84-1.42-19.36-4.27c-5.53-2.84-9.8-6.75-12.83-11.72
			c-3.03-4.97-4.55-10.67-4.55-17.1v-60.49h14.1v59.32c0,4.17,0.92,7.86,2.75,11.07c1.83,3.22,4.44,5.75,7.82,7.61
			c3.38,1.86,7.4,2.78,12.06,2.78c4.62,0,8.61-0.93,11.97-2.78c3.36-1.86,5.95-4.39,7.76-7.61c1.81-3.22,2.72-6.91,2.72-11.07
			v-59.32h14.16v60.49c0,6.43-1.52,12.13-4.55,17.1c-3.03,4.97-7.3,8.88-12.8,11.72C311.13,673.08,304.7,674.5,297.36,674.5z"/>
		<path class="st0" d="M354.39,673.08v-92.16h20.78l20.1,52.89c0.58,1.57,1.23,3.55,1.95,5.94c0.72,2.39,1.47,4.99,2.26,7.79
			c0.78,2.81,1.53,5.57,2.23,8.29c0.7,2.72,1.32,5.18,1.86,7.36h-2.97c0.54-2.06,1.15-4.44,1.86-7.14c0.7-2.7,1.44-5.45,2.23-8.26
			c0.78-2.8,1.55-5.44,2.29-7.92c0.74-2.47,1.4-4.49,1.98-6.06l19.79-52.89h20.91v92.16h-14.04v-49.61c0-1.9,0.02-4.16,0.06-6.8
			c0.04-2.64,0.09-5.43,0.15-8.38c0.06-2.95,0.12-5.93,0.19-8.94c0.06-3.01,0.11-5.9,0.15-8.66h1.05c-0.83,3.01-1.72,6.11-2.69,9.31
			c-0.97,3.2-1.92,6.28-2.85,9.25c-0.93,2.97-1.81,5.68-2.66,8.13c-0.85,2.45-1.56,4.48-2.13,6.09l-18.87,49.61h-12.06l-19.11-49.61
			c-0.62-1.57-1.33-3.56-2.13-5.97c-0.8-2.41-1.68-5.09-2.63-8.04c-0.95-2.95-1.92-6.02-2.91-9.22c-0.99-3.2-1.98-6.38-2.97-9.56
			h1.24c0.08,2.52,0.15,5.25,0.22,8.2s0.12,5.93,0.19,8.94c0.06,3.01,0.12,5.87,0.19,8.57c0.06,2.7,0.09,5.06,0.09,7.08v49.61
			H354.39z"/>
		<path class="st0" d="M484.1,580.92v92.16H470v-92.16H484.1z"/>
		<path class="st0" d="M534.21,674.63c-6.27,0-11.73-1.04-16.39-3.12c-4.66-2.08-8.32-4.99-10.98-8.72
			c-2.66-3.73-4.16-8.07-4.48-13.02h8.97c0.33,3.67,1.54,6.75,3.62,9.25c2.08,2.5,4.8,4.39,8.17,5.69c3.36,1.3,7.06,1.95,11.1,1.95
			c4.58,0,8.63-0.76,12.15-2.29c3.53-1.52,6.3-3.66,8.32-6.4c2.02-2.74,3.03-5.93,3.03-9.56c0-3.05-0.79-5.62-2.38-7.7
			c-1.59-2.08-3.81-3.84-6.68-5.29c-2.87-1.44-6.24-2.72-10.11-3.83l-10.89-3.15c-7.34-2.14-12.99-5.16-16.95-9.03
			c-3.96-3.88-5.94-8.72-5.94-14.54c0-4.99,1.33-9.38,3.99-13.18c2.66-3.79,6.28-6.75,10.86-8.88s9.71-3.19,15.4-3.19
			c5.81,0,10.94,1.07,15.37,3.22c4.43,2.14,7.94,5.05,10.52,8.72c2.58,3.67,3.97,7.86,4.17,12.56h-8.6
			c-0.54-5.11-2.78-9.15-6.74-12.12c-3.96-2.97-8.95-4.45-14.97-4.45c-4.21,0-7.92,0.73-11.13,2.2c-3.22,1.46-5.73,3.46-7.55,6
			c-1.82,2.54-2.72,5.45-2.72,8.75c0,3.18,0.9,5.82,2.69,7.95c1.79,2.12,4.09,3.87,6.9,5.23c2.8,1.36,5.67,2.47,8.6,3.34l9.65,2.78
			c2.97,0.82,5.94,1.88,8.91,3.15c2.97,1.28,5.67,2.88,8.1,4.79c2.43,1.92,4.39,4.25,5.88,6.99c1.48,2.74,2.23,6.01,2.23,9.8
			c0,4.95-1.28,9.4-3.83,13.36c-2.56,3.96-6.24,7.07-11.04,9.34C546.63,673.49,540.89,674.63,534.21,674.63z"/>
		<path class="st0" d="M586.53,673.08v-92.16h8.78v41.13h51.83v-41.13h8.78v92.16h-8.78V629.9h-51.83v43.17H586.53z"/>
		<path class="st0" d="M716.24,674.32c-7.79,0-14.7-1.94-20.72-5.81c-6.02-3.88-10.74-9.35-14.16-16.42
			c-3.42-7.07-5.13-15.41-5.13-25.02c0-9.65,1.71-18.02,5.13-25.11c3.42-7.09,8.14-12.58,14.16-16.45
			c6.02-3.88,12.93-5.81,20.72-5.81c7.75,0,14.64,1.94,20.66,5.81c6.02,3.88,10.73,9.36,14.13,16.45c3.4,7.09,5.1,15.46,5.1,25.11
			c0,9.61-1.7,17.96-5.1,25.05c-3.4,7.09-8.11,12.57-14.13,16.42C730.88,672.39,724,674.32,716.24,674.32z M716.24,666.09
			c5.98,0,11.33-1.55,16.05-4.64s8.45-7.56,11.2-13.39c2.74-5.83,4.11-12.83,4.11-21c0-8.21-1.37-15.24-4.11-21.09
			c-2.74-5.85-6.47-10.33-11.2-13.42c-4.72-3.09-10.07-4.64-16.05-4.64c-6.02,0-11.4,1.55-16.14,4.64
			c-4.74,3.09-8.48,7.57-11.23,13.42c-2.74,5.86-4.11,12.89-4.11,21.09c0,8.12,1.37,15.1,4.11,20.94
			c2.74,5.83,6.48,10.31,11.23,13.42C704.84,664.53,710.22,666.09,716.24,666.09z"/>
		<path class="st0" d="M776.43,673.08v-92.16h30.06c6.52,0,11.98,1.26,16.39,3.77c4.41,2.52,7.74,5.92,9.99,10.21
			c2.25,4.29,3.37,9.13,3.37,14.54c0,5.4-1.12,10.27-3.37,14.6c-2.25,4.33-5.57,7.75-9.96,10.27s-9.85,3.77-16.36,3.77h-23.44v-7.86
			h23.07c4.78,0,8.75-0.9,11.91-2.69c3.15-1.79,5.52-4.26,7.08-7.39c1.57-3.13,2.35-6.7,2.35-10.7c0-3.96-0.78-7.51-2.35-10.64
			c-1.57-3.13-3.94-5.59-7.11-7.36c-3.18-1.77-7.15-2.66-11.94-2.66h-20.91v84.31H776.43z"/>
	</g>
</g>
<g>
	<path class="st0" d="M807.48-361.38c-2.41-2.15-4.67-4.51-7.27-6.41c-10.09-7.36-21.1-12.97-33.05-16.66
		c-0.96-0.29-1.17-0.73-1.17-1.65c0.03-9.03,0.01-18.07,0.04-27.1c0-0.87-0.23-1.46-0.9-2.02c-7.52-6.3-15.03-12.62-22.53-18.96
		c-0.6-0.51-0.98-0.45-1.53,0.04c-1.8,1.6-3.64,3.15-5.47,4.71c-5.54,4.74-11.08,9.48-16.64,14.2c-0.61,0.51-0.83,1.04-0.83,1.83
		c0.03,6.32,0.01,12.65,0.01,18.97v1.24h-15.73c-0.03-0.58-0.06-1.02-0.08-1.46c-0.14-4.02-0.28-8.05-0.42-12.07
		c-0.16-4.63-0.33-9.25-0.45-13.88c-0.01-0.41,0.22-0.98,0.53-1.21c3.72-2.72,7.09-5.81,10.08-9.32
		c8.69-10.2,11.15-21.59,6.11-34.16c-3.87-9.65-11.09-16.68-19.09-22.97c-0.21-0.16-0.8-0.12-1.03,0.07
		c-6.71,5.2-12.65,11.12-16.94,18.54c-3.7,6.41-5.64,13.24-4.75,20.7c0.72,6.03,3.1,11.42,6.72,16.26
		c3.15,4.21,7.13,7.51,11.58,10.26c0.67,0.41,0.96,0.81,0.93,1.69c-0.22,6.01-0.34,12.03-0.5,18.05c-0.09,3.27-0.2,6.53-0.3,9.73
		c-5.13,0.77-10.22,1.38-15.25,2.33c-5.06,0.96-10.05,2.26-15.08,3.4c-0.03-0.07-0.07-0.14-0.07-0.22
		c-0.29-5.86-0.59-11.72-0.83-17.58c-0.01-0.33,0.32-0.77,0.62-0.99c1.75-1.29,3.68-2.37,5.27-3.83c7.82-7.19,9.84-17.55,4.99-27.09
		c-2.97-5.85-7.37-10.48-12.49-14.49c-0.74-0.58-1.24-0.64-1.89,0.03c-2.27,2.3-4.71,4.44-6.8,6.89c-3.87,4.55-6.73,9.66-7.46,15.74
		c-0.7,5.73,0.77,10.85,4.22,15.44c2.26,3,5.25,5.12,8.44,7.01c0.37,0.22,0.77,0.76,0.76,1.15c-0.13,6.28-0.35,12.56-0.49,18.84
		c-0.02,0.8-0.32,1.05-1.02,1.31c-3.45,1.27-6.95,2.45-10.31,3.93c-13.84,6.08-25.44,15.33-36.12,25.83
		c-2.84,2.78-5.37,5.86-7.66,9.53c13.69-6.66,27.39-12.38,41.55-16.96c19.6-6.34,39.61-10.76,60.17-12.47
		c7.04-0.59,14.11-1.06,21.16-1c7.88,0.06,15.77,0.61,23.63,1.27c5.63,0.47,11.24,1.32,16.82,2.29c10.95,1.9,21.62,4.91,32.1,8.61
		c2.95,1.04,5.88,2.17,9.02,3.34C807.79-361.01,807.66-361.22,807.48-361.38z M749.53-389.1c-5.04-0.83-10-1.66-15.13-2.51
		c0-4.09-0.01-8.18,0.01-12.27c0-0.56,0.08-1.12,0.21-1.66c0.94-3.81,4.62-6.46,8.27-5.99c3.66,0.48,6.62,3.93,6.63,7.8
		C749.54-398.88,749.53-394.04,749.53-389.1z"/>
	<path class="st0" d="M741.98-438.87c-9.09,8.15-18.07,16.2-27.15,24.35c-0.49,0.44-1.23,0.45-1.74,0.03
		c-1.28-1.07-2.54-2.13-3.87-3.25c1.91-1.68,3.68-3.24,5.44-4.81c7.17-6.36,14.34-12.73,21.52-19.08c1.58-1.4,3.22-2.72,4.75-4.15
		c0.67-0.62,1.07-0.5,1.7,0.02c4.23,3.55,8.5,7.07,12.75,10.59c0.17,0.14,0.34,0.27,0.71,0.56c0-2.27,0-4.34,0-6.42
		c0-1.65,0-1.65,1.67-1.65c1.84,0,3.69,0.04,5.53-0.02c0.91-0.03,1.16,0.32,1.16,1.18c-0.03,4.37,0.01,8.73-0.03,13.1
		c-0.01,0.8,0.23,1.32,0.83,1.82c3.04,2.57,6.06,5.18,9.09,7.77c0.37,0.31,0.72,0.65,1.21,1.09c-1.48,1.38-2.82,2.68-4.29,3.94
		c-0.27,0.21-0.93,0.05-1.2-0.18c-4.13-3.62-8.23-7.27-12.33-10.92C752.51-429.53,747.31-434.14,741.98-438.87z"/>
</g>
<g>
	<path class="st0" d="M429.18-231.8l-30.48-84.26h13.91l16.4,46.88c1.21,3.62,2.59,8.05,4.16,13.29c1.56,5.24,3.34,11.42,5.34,18.55
		h-2.66c1.96-7.28,3.7-13.5,5.23-18.66c1.53-5.17,2.87-9.56,4.04-13.18l15.95-46.88h13.97l-30.08,84.26H429.18z"/>
	<path class="st0" d="M520.84-230.5c-6.75,0-12.65-1.3-17.7-3.9c-5.05-2.6-8.96-6.17-11.73-10.72c-2.77-4.54-4.16-9.75-4.16-15.63
		v-55.3h12.89v54.23c0,3.81,0.84,7.18,2.52,10.12c1.68,2.94,4.06,5.26,7.15,6.96c3.09,1.7,6.77,2.54,11.03,2.54
		c4.22,0,7.87-0.85,10.94-2.54c3.07-1.7,5.44-4.02,7.1-6.96c1.66-2.94,2.49-6.31,2.49-10.12v-54.23h12.95v55.3
		c0,5.88-1.39,11.09-4.16,15.63c-2.77,4.54-6.67,8.12-11.71,10.72C533.43-231.8,527.55-230.5,520.84-230.5z"/>
	<path class="st0" d="M572.98-231.8v-84.26h19l18.38,48.35c0.53,1.43,1.12,3.24,1.78,5.43c0.66,2.19,1.35,4.56,2.06,7.12
		c0.72,2.56,1.39,5.09,2.04,7.58c0.64,2.49,1.21,4.73,1.7,6.73h-2.71c0.49-1.88,1.05-4.06,1.7-6.53c0.64-2.47,1.32-4.99,2.04-7.55
		c0.72-2.56,1.41-4.98,2.09-7.24c0.68-2.26,1.28-4.11,1.81-5.54l18.1-48.35h19.11v84.26h-12.84v-45.35c0-1.73,0.02-3.81,0.06-6.22
		c0.04-2.41,0.08-4.97,0.14-7.66c0.06-2.69,0.11-5.42,0.17-8.17c0.06-2.75,0.1-5.39,0.14-7.92h0.96c-0.75,2.75-1.57,5.59-2.46,8.51
		c-0.89,2.92-1.75,5.74-2.6,8.45s-1.66,5.19-2.43,7.44c-0.77,2.24-1.42,4.1-1.95,5.57l-17.25,45.35h-11.03l-17.47-45.35
		c-0.57-1.43-1.22-3.25-1.95-5.46c-0.73-2.21-1.54-4.66-2.4-7.35c-0.87-2.7-1.75-5.5-2.66-8.43c-0.9-2.92-1.81-5.83-2.71-8.74h1.13
		c0.07,2.3,0.14,4.8,0.2,7.49s0.11,5.42,0.17,8.17c0.06,2.75,0.11,5.36,0.17,7.83c0.06,2.47,0.08,4.63,0.08,6.47v45.35H572.98z"/>
	<path class="st0" d="M691.56-316.06v84.26h-12.89v-84.26H691.56z"/>
	<path class="st0" d="M737.37-230.38c-5.73,0-10.73-0.95-14.99-2.86c-4.26-1.9-7.61-4.56-10.04-7.97c-2.43-3.41-3.8-7.38-4.1-11.9
		h8.2c0.3,3.36,1.4,6.17,3.31,8.45s4.39,4.01,7.46,5.2c3.07,1.19,6.46,1.78,10.15,1.78c4.18,0,7.89-0.7,11.11-2.09
		c3.22-1.39,5.76-3.34,7.61-5.85c1.85-2.51,2.77-5.42,2.77-8.74c0-2.79-0.73-5.14-2.18-7.04s-3.49-3.51-6.11-4.83
		c-2.62-1.32-5.7-2.49-9.25-3.51l-9.95-2.88c-6.71-1.96-11.88-4.71-15.49-8.26c-3.62-3.54-5.43-7.97-5.43-13.29
		c0-4.56,1.22-8.58,3.65-12.04c2.43-3.47,5.74-6.17,9.92-8.11s8.88-2.91,14.08-2.91c5.32,0,10,0.98,14.05,2.94
		c4.05,1.96,7.26,4.62,9.61,7.97c2.36,3.36,3.63,7.18,3.82,11.48h-7.86c-0.49-4.67-2.54-8.37-6.16-11.08
		c-3.62-2.71-8.18-4.07-13.68-4.07c-3.85,0-7.24,0.67-10.18,2.01c-2.94,1.34-5.24,3.17-6.9,5.49c-1.66,2.32-2.49,4.99-2.49,8
		c0,2.9,0.82,5.33,2.46,7.27c1.64,1.94,3.74,3.53,6.3,4.78c2.56,1.24,5.18,2.26,7.86,3.05l8.82,2.54c2.71,0.75,5.43,1.72,8.14,2.88
		c2.71,1.17,5.18,2.63,7.41,4.38c2.22,1.75,4.01,3.88,5.37,6.39s2.04,5.49,2.04,8.96c0,4.52-1.17,8.59-3.51,12.21
		c-2.34,3.62-5.7,6.47-10.09,8.54C748.72-231.42,743.47-230.38,737.37-230.38z"/>
	<path class="st0" d="M785.21-231.8v-84.26h8.03v37.6h47.39v-37.6h8.03v84.26h-8.03v-39.47h-47.39v39.47H785.21z"/>
	<path class="st0" d="M903.79-230.67c-7.12,0-13.44-1.77-18.94-5.32c-5.5-3.54-9.82-8.55-12.95-15.01
		c-3.13-6.46-4.69-14.09-4.69-22.87c0-8.82,1.56-16.47,4.69-22.96c3.13-6.48,7.44-11.5,12.95-15.04c5.5-3.54,11.82-5.32,18.94-5.32
		c7.09,0,13.38,1.77,18.89,5.32c5.5,3.54,9.81,8.56,12.92,15.04c3.11,6.48,4.67,14.14,4.67,22.96c0,8.78-1.56,16.42-4.67,22.9
		c-3.11,6.48-7.42,11.49-12.92,15.01C917.17-232.43,910.87-230.67,903.79-230.67z M903.79-238.19c5.47,0,10.36-1.41,14.67-4.24
		s7.73-6.91,10.24-12.24c2.51-5.33,3.76-11.73,3.76-19.2c0-7.5-1.25-13.93-3.76-19.28c-2.51-5.35-5.92-9.44-10.24-12.27
		c-4.32-2.83-9.21-4.24-14.67-4.24c-5.5,0-10.42,1.41-14.76,4.24c-4.34,2.83-7.76,6.92-10.26,12.27
		c-2.51,5.35-3.76,11.78-3.76,19.28c0,7.43,1.25,13.81,3.76,19.14c2.51,5.33,5.93,9.42,10.26,12.27
		C893.36-239.61,898.28-238.19,903.79-238.19z"/>
	<path class="st0" d="M958.81-231.8v-84.26h27.48c5.96,0,10.95,1.15,14.99,3.45c4.03,2.3,7.08,5.41,9.13,9.33
		c2.05,3.92,3.08,8.35,3.08,13.29s-1.03,9.39-3.08,13.34c-2.06,3.96-5.09,7.09-9.1,9.39s-9,3.45-14.96,3.45h-21.43v-7.18h21.09
		c4.37,0,8-0.82,10.88-2.46s5.04-3.89,6.47-6.76c1.43-2.86,2.15-6.12,2.15-9.78c0-3.62-0.72-6.86-2.15-9.73
		c-1.43-2.86-3.6-5.11-6.5-6.73c-2.9-1.62-6.54-2.43-10.91-2.43h-19.11v77.08H958.81z"/>
</g>
<g>
	<g>
		<path class="st0" d="M2496.52,171.05l-30.48-84.26h13.91l16.4,46.88c1.21,3.62,2.59,8.05,4.16,13.29
			c1.56,5.24,3.34,11.42,5.34,18.55h-2.66c1.96-7.28,3.7-13.5,5.23-18.66c1.53-5.17,2.87-9.56,4.04-13.18l15.95-46.88h13.97
			l-30.08,84.26H2496.52z"/>
		<path class="st0" d="M2588.18,172.35c-6.75,0-12.65-1.3-17.7-3.9c-5.05-2.6-8.96-6.17-11.73-10.72
			c-2.77-4.54-4.16-9.75-4.16-15.63v-55.3h12.89v54.23c0,3.81,0.84,7.18,2.52,10.12c1.68,2.94,4.06,5.26,7.15,6.96
			c3.09,1.7,6.77,2.54,11.03,2.54c4.22,0,7.87-0.85,10.94-2.54c3.07-1.7,5.44-4.02,7.1-6.96c1.66-2.94,2.49-6.31,2.49-10.12V86.79
			h12.95v55.3c0,5.88-1.39,11.09-4.16,15.63c-2.77,4.54-6.67,8.12-11.71,10.72C2600.76,171.05,2594.89,172.35,2588.18,172.35z"/>
		<path class="st0" d="M2640.32,171.05V86.79h19l18.38,48.35c0.53,1.43,1.12,3.24,1.78,5.43c0.66,2.19,1.35,4.56,2.06,7.12
			c0.72,2.56,1.39,5.09,2.04,7.58c0.64,2.49,1.21,4.73,1.7,6.73h-2.71c0.49-1.88,1.05-4.06,1.7-6.53c0.64-2.47,1.32-4.99,2.04-7.55
			s1.41-4.98,2.09-7.24s1.28-4.11,1.81-5.54l18.09-48.35h19.11v84.26h-12.84V125.7c0-1.73,0.02-3.81,0.06-6.22
			c0.04-2.41,0.08-4.97,0.14-7.66c0.06-2.69,0.11-5.42,0.17-8.17c0.06-2.75,0.1-5.39,0.14-7.92h0.96c-0.75,2.75-1.57,5.59-2.46,8.51
			c-0.89,2.92-1.75,5.74-2.6,8.45c-0.85,2.71-1.66,5.19-2.43,7.44c-0.77,2.24-1.42,4.1-1.95,5.57l-17.25,45.35h-11.03l-17.47-45.35
			c-0.57-1.43-1.22-3.25-1.95-5.46c-0.73-2.21-1.54-4.66-2.4-7.35s-1.75-5.5-2.66-8.43c-0.91-2.92-1.81-5.83-2.71-8.74h1.13
			c0.07,2.3,0.14,4.8,0.2,7.49s0.11,5.42,0.17,8.17c0.06,2.75,0.11,5.36,0.17,7.83c0.06,2.47,0.08,4.63,0.08,6.47v45.35H2640.32z"/>
		<path class="st0" d="M2758.9,86.79v84.26h-12.89V86.79H2758.9z"/>
		<path class="st0" d="M2804.7,172.46c-5.73,0-10.73-0.95-14.99-2.86c-4.26-1.9-7.61-4.56-10.04-7.97c-2.43-3.41-3.8-7.38-4.1-11.9
			h8.2c0.3,3.36,1.4,6.17,3.31,8.45s4.39,4.01,7.46,5.2c3.07,1.19,6.46,1.78,10.15,1.78c4.18,0,7.89-0.7,11.11-2.09
			c3.22-1.39,5.76-3.34,7.61-5.85c1.85-2.51,2.77-5.42,2.77-8.74c0-2.79-0.73-5.14-2.18-7.04s-3.49-3.51-6.11-4.83
			c-2.62-1.32-5.7-2.49-9.25-3.51l-9.95-2.88c-6.71-1.96-11.88-4.71-15.49-8.26c-3.62-3.54-5.43-7.97-5.43-13.29
			c0-4.56,1.22-8.58,3.65-12.04c2.43-3.47,5.74-6.17,9.92-8.11s8.88-2.91,14.08-2.91c5.32,0,10,0.98,14.05,2.94
			c4.05,1.96,7.26,4.62,9.61,7.97c2.36,3.36,3.63,7.18,3.82,11.48h-7.86c-0.49-4.67-2.54-8.37-6.16-11.08
			c-3.62-2.71-8.18-4.07-13.68-4.07c-3.85,0-7.24,0.67-10.18,2.01c-2.94,1.34-5.24,3.17-6.9,5.49c-1.66,2.32-2.49,4.99-2.49,8
			c0,2.9,0.82,5.33,2.46,7.27c1.64,1.94,3.74,3.53,6.3,4.78c2.56,1.24,5.18,2.26,7.86,3.05l8.82,2.54c2.71,0.75,5.43,1.72,8.14,2.88
			c2.71,1.17,5.18,2.63,7.41,4.38c2.22,1.75,4.01,3.88,5.37,6.39s2.04,5.49,2.04,8.96c0,4.52-1.17,8.59-3.51,12.21
			c-2.34,3.62-5.7,6.47-10.09,8.54C2816.06,171.42,2810.81,172.46,2804.7,172.46z"/>
		<path class="st0" d="M2852.54,171.05V86.79h8.03v37.6h47.39v-37.6h8.03v84.26h-8.03v-39.47h-47.39v39.47H2852.54z"/>
		<path class="st0" d="M2971.12,172.18c-7.12,0-13.44-1.77-18.94-5.32c-5.5-3.54-9.82-8.55-12.95-15.01
			c-3.13-6.46-4.69-14.09-4.69-22.87c0-8.82,1.56-16.47,4.69-22.96c3.13-6.48,7.44-11.5,12.95-15.04c5.5-3.54,11.82-5.32,18.94-5.32
			c7.09,0,13.38,1.77,18.89,5.32c5.5,3.54,9.81,8.56,12.92,15.04c3.11,6.48,4.67,14.14,4.67,22.96c0,8.78-1.56,16.42-4.67,22.9
			c-3.11,6.48-7.42,11.49-12.92,15.01C2984.51,170.42,2978.21,172.18,2971.12,172.18z M2971.12,164.66c5.47,0,10.36-1.41,14.67-4.24
			s7.73-6.91,10.24-12.24c2.51-5.33,3.76-11.73,3.76-19.2c0-7.5-1.25-13.93-3.76-19.28c-2.51-5.35-5.92-9.44-10.24-12.27
			c-4.32-2.83-9.21-4.24-14.67-4.24c-5.5,0-10.42,1.41-14.76,4.24c-4.34,2.83-7.76,6.92-10.26,12.27
			c-2.51,5.35-3.76,11.78-3.76,19.28c0,7.43,1.25,13.81,3.76,19.14c2.51,5.33,5.93,9.42,10.26,12.27
			C2960.7,163.23,2965.62,164.66,2971.12,164.66z"/>
		<path class="st0" d="M3026.14,171.05V86.79h27.48c5.96,0,10.95,1.15,14.99,3.45c4.03,2.3,7.08,5.41,9.13,9.33
			c2.05,3.92,3.08,8.35,3.08,13.29s-1.03,9.39-3.08,13.34c-2.06,3.96-5.09,7.09-9.1,9.39s-9,3.45-14.96,3.45h-21.43v-7.18h21.09
			c4.37,0,8-0.82,10.88-2.46s5.04-3.89,6.47-6.76c1.43-2.86,2.15-6.12,2.15-9.78c0-3.62-0.72-6.86-2.15-9.73
			c-1.43-2.86-3.6-5.11-6.5-6.73c-2.9-1.62-6.54-2.43-10.91-2.43h-19.11v77.08H3026.14z"/>
	</g>
</g>
<g>
	<path class="st0" d="M-1980.81,595.4c-3.45-3.08-6.68-6.45-10.4-9.16c-14.42-10.53-30.17-18.55-47.26-23.82
		c-1.37-0.42-1.68-1.05-1.67-2.36c0.05-12.92,0.01-25.84,0.06-38.76c0-1.24-0.33-2.09-1.29-2.89c-10.76-9.01-21.5-18.05-32.21-27.11
		c-0.85-0.72-1.4-0.64-2.19,0.06c-2.57,2.28-5.21,4.5-7.82,6.74c-7.92,6.77-15.85,13.56-23.8,20.3c-0.87,0.73-1.19,1.49-1.19,2.61
		c0.04,9.04,0.02,18.09,0.02,27.13v1.78h-22.49c-0.05-0.82-0.09-1.46-0.11-2.09c-0.2-5.75-0.4-11.51-0.6-17.26
		c-0.23-6.61-0.48-13.23-0.65-19.84c-0.02-0.58,0.31-1.4,0.75-1.73c5.32-3.89,10.14-8.31,14.42-13.32
		c12.43-14.58,15.95-30.87,8.73-48.84c-5.54-13.8-15.86-23.85-27.3-32.85c-0.3-0.23-1.14-0.17-1.48,0.1
		c-9.59,7.44-18.09,15.9-24.22,26.51c-5.29,9.17-8.07,18.94-6.79,29.6c1.04,8.63,4.43,16.33,9.61,23.26
		c4.5,6.02,10.19,10.74,16.55,14.67c0.95,0.59,1.37,1.16,1.33,2.41c-0.31,8.6-0.49,17.21-0.72,25.81
		c-0.13,4.67-0.28,9.34-0.42,13.91c-7.33,1.1-14.61,1.97-21.8,3.33c-7.23,1.37-14.38,3.22-21.56,4.87c-0.04-0.11-0.1-0.21-0.1-0.31
		c-0.41-8.38-0.84-16.76-1.19-25.14c-0.02-0.47,0.46-1.1,0.89-1.42c2.5-1.85,5.27-3.39,7.54-5.48
		c11.19-10.28,14.07-25.09,7.14-38.74c-4.25-8.36-10.54-14.98-17.87-20.72c-1.06-0.83-1.77-0.92-2.71,0.04
		c-3.24,3.28-6.74,6.34-9.72,9.85c-5.53,6.51-9.62,13.81-10.67,22.51c-1,8.2,1.1,15.52,6.04,22.08c3.23,4.29,7.5,7.33,12.07,10.02
		c0.52,0.31,1.1,1.09,1.09,1.64c-0.19,8.98-0.5,17.96-0.7,26.94c-0.03,1.14-0.46,1.51-1.45,1.87c-4.94,1.81-9.93,3.51-14.74,5.63
		c-19.79,8.7-36.37,21.93-51.65,36.94c-4.06,3.98-7.67,8.38-10.96,13.63c19.58-9.52,39.17-17.7,59.42-24.25
		c28.03-9.07,56.65-15.39,86.04-17.84c10.06-0.84,20.18-1.51,30.26-1.44c11.27,0.09,22.55,0.87,33.79,1.81
		c8.05,0.68,16.08,1.89,24.05,3.27c15.66,2.72,30.92,7.03,45.91,12.31c4.22,1.49,8.4,3.11,12.9,4.78
		C-1980.37,595.93-1980.56,595.63-1980.81,595.4z M-2063.68,555.76c-7.21-1.19-14.3-2.37-21.64-3.59c0-5.85-0.01-11.7,0.01-17.55
		c0-0.79,0.12-1.6,0.3-2.37c1.35-5.45,6.61-9.24,11.83-8.56c5.24,0.68,9.47,5.62,9.49,11.16
		C-2063.67,541.77-2063.68,548.7-2063.68,555.76z"/>
	<path class="st0" d="M-2074.49,484.58c-12.99,11.65-25.84,23.17-38.83,34.82c-0.7,0.63-1.76,0.65-2.48,0.04
		c-1.83-1.53-3.63-3.05-5.54-4.65c2.73-2.41,5.26-4.64,7.78-6.88c10.26-9.1,20.51-18.2,30.77-27.29c2.25-2,4.6-3.89,6.8-5.94
		c0.95-0.89,1.54-0.72,2.43,0.03c6.06,5.08,12.15,10.1,18.23,15.15c0.24,0.2,0.49,0.39,1.01,0.8c0-3.24,0-6.21,0-9.19
		c0-2.36,0-2.36,2.39-2.36c2.64,0,5.28,0.06,7.91-0.02c1.31-0.04,1.66,0.46,1.65,1.69c-0.04,6.24,0.02,12.49-0.05,18.73
		c-0.01,1.14,0.33,1.88,1.18,2.6c4.35,3.68,8.67,7.4,12.99,11.11c0.52,0.45,1.03,0.92,1.73,1.55c-2.12,1.98-4.04,3.84-6.14,5.64
		c-0.39,0.29-1.33,0.08-1.71-0.25c-5.91-5.17-11.76-10.4-17.64-15.61C-2059.42,497.94-2066.86,491.35-2074.49,484.58z"/>
</g>
<g>
	<path class="st0" d="M-2456.31,746.5c-2.46-2.2-4.77-4.6-7.42-6.54c-10.29-7.52-21.53-13.24-33.73-17c-0.98-0.3-1.2-0.75-1.19-1.69
		c0.03-9.22,0.01-18.44,0.04-27.66c0-0.88-0.24-1.49-0.92-2.07c-7.68-6.43-15.34-12.88-22.99-19.35c-0.61-0.52-1-0.46-1.56,0.04
		c-1.84,1.63-3.72,3.21-5.58,4.81c-5.66,4.83-11.31,9.68-16.99,14.49c-0.62,0.52-0.85,1.06-0.85,1.86
		c0.03,6.45,0.01,12.91,0.01,19.36v1.27h-16.05c-0.03-0.59-0.06-1.04-0.08-1.49c-0.14-4.11-0.29-8.21-0.43-12.32
		c-0.16-4.72-0.34-9.44-0.46-14.16c-0.01-0.42,0.22-1,0.54-1.23c3.8-2.78,7.24-5.93,10.29-9.51c8.87-10.41,11.38-22.03,6.23-34.86
		c-3.95-9.85-11.32-17.02-19.49-23.45c-0.21-0.17-0.82-0.12-1.06,0.07c-6.85,5.31-12.91,11.35-17.28,18.92
		c-3.78,6.54-5.76,13.52-4.85,21.12c0.74,6.16,3.16,11.65,6.86,16.6c3.22,4.3,7.27,7.66,11.81,10.47c0.68,0.42,0.98,0.83,0.95,1.72
		c-0.22,6.14-0.35,12.28-0.51,18.42c-0.09,3.33-0.2,6.66-0.3,9.93c-5.23,0.78-10.43,1.41-15.56,2.38
		c-5.16,0.98-10.26,2.3-15.39,3.47c-0.03-0.08-0.07-0.15-0.07-0.22c-0.29-5.98-0.6-11.96-0.85-17.94c-0.01-0.33,0.33-0.79,0.64-1.02
		c1.78-1.32,3.76-2.42,5.38-3.91c7.98-7.34,10.04-17.91,5.09-27.65c-3.04-5.97-7.52-10.69-12.75-14.79
		c-0.76-0.59-1.26-0.65-1.93,0.03c-2.31,2.34-4.81,4.53-6.94,7.03c-3.95,4.65-6.86,9.86-7.62,16.07
		c-0.71,5.85,0.79,11.08,4.31,15.76c2.31,3.06,5.36,5.23,8.62,7.15c0.37,0.22,0.78,0.78,0.78,1.17c-0.14,6.41-0.36,12.82-0.5,19.23
		c-0.02,0.82-0.33,1.08-1.04,1.33c-3.52,1.29-7.09,2.5-10.52,4.02c-14.12,6.21-25.96,15.65-36.86,26.36
		c-2.9,2.84-5.48,5.98-7.82,9.73c13.97-6.79,27.96-12.63,42.41-17.31c20-6.47,40.43-10.99,61.41-12.73c7.18-0.6,14.4-1.08,21.6-1.02
		c8.04,0.06,16.1,0.62,24.12,1.29c5.75,0.48,11.47,1.35,17.16,2.34c11.18,1.94,22.07,5.01,32.76,8.78c3.01,1.06,6,2.22,9.2,3.41
		C-2456,746.87-2456.13,746.66-2456.31,746.5z M-2515.46,718.21c-5.15-0.85-10.2-1.69-15.45-2.56c0-4.17-0.01-8.35,0.01-12.52
		c0-0.57,0.08-1.14,0.22-1.69c0.96-3.89,4.72-6.59,8.44-6.11c3.74,0.49,6.76,4.01,6.77,7.96
		C-2515.45,708.22-2515.46,713.17-2515.46,718.21z"/>
	<path class="st0" d="M-2523.17,667.41c-9.27,8.32-18.44,16.54-27.71,24.85c-0.5,0.45-1.26,0.46-1.77,0.03
		c-1.3-1.1-2.59-2.18-3.95-3.32c1.95-1.72,3.75-3.31,5.55-4.91c7.32-6.49,14.64-12.99,21.96-19.48c1.61-1.42,3.28-2.77,4.85-4.24
		c0.68-0.63,1.1-0.51,1.73,0.02c4.32,3.62,8.67,7.21,13.01,10.81c0.17,0.14,0.35,0.28,0.72,0.57c0-2.31,0-4.43,0-6.56
		c0-1.68,0-1.69,1.71-1.69c1.88,0,3.77,0.04,5.65-0.02c0.93-0.03,1.19,0.33,1.18,1.21c-0.03,4.46,0.01,8.91-0.03,13.37
		c-0.01,0.81,0.24,1.34,0.84,1.86c3.11,2.62,6.19,5.28,9.27,7.93c0.37,0.32,0.73,0.66,1.23,1.11c-1.51,1.41-2.88,2.74-4.38,4.02
		c-0.28,0.21-0.95,0.05-1.22-0.18c-4.21-3.69-8.4-7.42-12.59-11.14C-2512.42,676.94-2517.73,672.24-2523.17,667.41z"/>
</g>
<g>
	<path class="st0" d="M-2396.47,731.71l-30.48-84.26h13.91l16.4,46.88c1.21,3.62,2.59,8.05,4.16,13.29
		c1.56,5.24,3.34,11.42,5.34,18.55h-2.66c1.96-7.28,3.7-13.5,5.23-18.66s2.87-9.56,4.04-13.18l15.95-46.88h13.97l-30.08,84.26
		H-2396.47z"/>
	<path class="st0" d="M-2304.8,733.01c-6.75,0-12.65-1.3-17.7-3.9c-5.05-2.6-8.96-6.17-11.73-10.72c-2.77-4.54-4.16-9.75-4.16-15.63
		v-55.3h12.89v54.23c0,3.81,0.84,7.18,2.52,10.12c1.68,2.94,4.06,5.26,7.15,6.96c3.09,1.7,6.77,2.54,11.03,2.54
		c4.22,0,7.87-0.85,10.94-2.54c3.07-1.7,5.44-4.02,7.1-6.96c1.66-2.94,2.49-6.31,2.49-10.12v-54.23h12.95v55.3
		c0,5.88-1.39,11.09-4.16,15.63c-2.77,4.54-6.67,8.12-11.71,10.72C-2292.22,731.71-2298.09,733.01-2304.8,733.01z"/>
	<path class="st0" d="M-2252.67,731.71v-84.26h19l18.38,48.35c0.53,1.43,1.12,3.24,1.78,5.43c0.66,2.19,1.35,4.56,2.06,7.12
		c0.72,2.56,1.39,5.09,2.04,7.58c0.64,2.49,1.21,4.73,1.7,6.73h-2.71c0.49-1.88,1.05-4.06,1.7-6.53c0.64-2.47,1.32-4.99,2.04-7.55
		c0.72-2.56,1.41-4.98,2.09-7.24c0.68-2.26,1.28-4.11,1.81-5.54l18.1-48.35h19.11v84.26h-12.84v-45.35c0-1.73,0.02-3.81,0.06-6.22
		c0.04-2.41,0.08-4.97,0.14-7.66c0.06-2.69,0.11-5.42,0.17-8.17c0.06-2.75,0.1-5.39,0.14-7.92h0.96c-0.75,2.75-1.57,5.59-2.46,8.51
		c-0.89,2.92-1.75,5.74-2.6,8.45s-1.66,5.19-2.43,7.44c-0.77,2.24-1.42,4.1-1.95,5.57l-17.25,45.35h-11.03l-17.47-45.35
		c-0.57-1.43-1.22-3.25-1.95-5.46c-0.73-2.21-1.54-4.66-2.4-7.35c-0.87-2.7-1.75-5.5-2.66-8.43c-0.9-2.92-1.81-5.83-2.71-8.74h1.13
		c0.07,2.3,0.14,4.8,0.2,7.49s0.11,5.42,0.17,8.17c0.06,2.75,0.11,5.36,0.17,7.83c0.06,2.47,0.08,4.63,0.08,6.47v45.35H-2252.67z"/>
	<path class="st0" d="M-2134.08,647.45v84.26h-12.89v-84.26H-2134.08z"/>
	<path class="st0" d="M-2088.28,733.12c-5.73,0-10.73-0.95-14.99-2.86c-4.26-1.9-7.61-4.56-10.04-7.97c-2.43-3.41-3.8-7.38-4.1-11.9
		h8.2c0.3,3.36,1.4,6.17,3.31,8.45s4.39,4.01,7.46,5.2c3.07,1.19,6.46,1.78,10.15,1.78c4.18,0,7.89-0.7,11.11-2.09
		c3.22-1.39,5.76-3.34,7.61-5.85c1.85-2.51,2.77-5.42,2.77-8.74c0-2.79-0.73-5.14-2.18-7.04s-3.49-3.51-6.11-4.83
		c-2.62-1.32-5.7-2.49-9.25-3.51l-9.95-2.88c-6.71-1.96-11.88-4.71-15.49-8.26c-3.62-3.54-5.43-7.97-5.43-13.29
		c0-4.56,1.22-8.58,3.65-12.04c2.43-3.47,5.74-6.17,9.92-8.11s8.88-2.91,14.08-2.91c5.32,0,10,0.98,14.05,2.94
		c4.05,1.96,7.26,4.62,9.61,7.97c2.36,3.36,3.63,7.18,3.82,11.48h-7.86c-0.49-4.67-2.54-8.37-6.16-11.08
		c-3.62-2.71-8.18-4.07-13.68-4.07c-3.85,0-7.24,0.67-10.18,2.01c-2.94,1.34-5.24,3.17-6.9,5.49c-1.66,2.32-2.49,4.99-2.49,8
		c0,2.9,0.82,5.33,2.46,7.27c1.64,1.94,3.74,3.53,6.3,4.78c2.56,1.24,5.18,2.26,7.86,3.05l8.82,2.54c2.71,0.75,5.43,1.72,8.14,2.88
		c2.71,1.17,5.18,2.63,7.41,4.38c2.22,1.75,4.01,3.88,5.37,6.39s2.04,5.49,2.04,8.96c0,4.52-1.17,8.59-3.51,12.21
		c-2.34,3.62-5.7,6.47-10.09,8.54C-2076.92,732.09-2082.17,733.12-2088.28,733.12z"/>
	<path class="st0" d="M-2040.44,731.71v-84.26h8.03v37.6h47.39v-37.6h8.03v84.26h-8.03v-39.47h-47.39v39.47H-2040.44z"/>
	<path class="st0" d="M-1921.86,732.84c-7.12,0-13.44-1.77-18.94-5.32c-5.5-3.54-9.82-8.55-12.95-15.01
		c-3.13-6.46-4.69-14.09-4.69-22.87c0-8.82,1.56-16.47,4.69-22.96c3.13-6.48,7.44-11.5,12.95-15.04c5.5-3.54,11.82-5.32,18.94-5.32
		c7.09,0,13.38,1.77,18.89,5.32c5.5,3.54,9.81,8.56,12.92,15.04c3.11,6.48,4.67,14.14,4.67,22.96c0,8.78-1.56,16.42-4.67,22.9
		c-3.11,6.48-7.42,11.49-12.92,15.01C-1908.48,731.08-1914.77,732.84-1921.86,732.84z M-1921.86,725.32
		c5.47,0,10.36-1.41,14.67-4.24s7.73-6.91,10.24-12.24c2.51-5.33,3.76-11.73,3.76-19.2c0-7.5-1.25-13.93-3.76-19.28
		c-2.51-5.35-5.92-9.44-10.24-12.27c-4.32-2.83-9.21-4.24-14.67-4.24c-5.5,0-10.42,1.41-14.76,4.24
		c-4.34,2.83-7.76,6.92-10.26,12.27c-2.51,5.35-3.76,11.78-3.76,19.28c0,7.43,1.25,13.81,3.76,19.14
		c2.51,5.33,5.93,9.42,10.26,12.27C-1932.28,723.9-1927.37,725.32-1921.86,725.32z"/>
	<path class="st0" d="M-1866.84,731.71v-84.26h27.48c5.96,0,10.95,1.15,14.99,3.45c4.03,2.3,7.08,5.41,9.13,9.33
		c2.05,3.92,3.08,8.35,3.08,13.29s-1.03,9.39-3.08,13.34c-2.06,3.96-5.09,7.09-9.1,9.39s-9,3.45-14.96,3.45h-21.43v-7.18h21.09
		c4.37,0,8-0.82,10.88-2.46s5.04-3.89,6.47-6.76c1.43-2.86,2.15-6.12,2.15-9.78c0-3.62-0.72-6.86-2.15-9.73
		c-1.43-2.86-3.6-5.11-6.5-6.73c-2.9-1.62-6.54-2.43-10.91-2.43h-19.11v77.08H-1866.84z"/>
</g>
<line class="st1" x1="-2860.14" y1="646.55" x2="-1653.97" y2="646.55"/>
<line class="st1" x1="-2860.14" y1="732.84" x2="-1653.97" y2="732.84"/>
<line class="st1" x1="-2860.14" y1="761.6" x2="-1653.97" y2="761.6"/>
<line class="st1" x1="-2426.95" y1="125.05" x2="-2426.95" y2="1000.01"/>
<line class="st1" x1="-2455.71" y1="125.05" x2="-2455.71" y2="1000.01"/>
<line class="st1" x1="-2860.14" y1="704.08" x2="-1653.97" y2="704.08"/>
<line class="st1" x1="-1812.16" y1="125.05" x2="-1812.16" y2="1000.01"/>
<line class="st1" x1="-2017.09" y1="125.05" x2="-2017.09" y2="1000.01"/>
<line class="st1" x1="-2222.02" y1="125.05" x2="-2222.02" y2="1000.01"/>
<line class="st1" x1="-2860.14" y1="675.31" x2="-1653.97" y2="675.31"/>
<line class="st1" x1="-2860.14" y1="617.78" x2="-1653.97" y2="617.78"/>
</svg>
