<svg xmlns="http://www.w3.org/2000/svg" xmlns:xlink="http://www.w3.org/1999/xlink" width="244" zoomAndPan="magnify" viewBox="0 0 183.12 125.04" height="156" preserveAspectRatio="xMidYMid meet" version="1.0"><defs><clipPath id="dcb0074edd"><path d="M 19.910156 11.609375 L 162.070312 11.609375 L 162.070312 104.648438 L 19.910156 104.648438 Z M 19.910156 11.609375 " clip-rule="nonzero"/></clipPath></defs><path fill="#ed1c24" d="M 87.207031 65.980469 L 84.472656 65.980469 C 83.691406 65.980469 82.976562 65.65625 82.457031 65.140625 L 82.375 65.0625 C 81.90625 64.554688 81.617188 63.871094 81.617188 63.121094 C 81.617188 62.089844 80.777344 61.246094 79.738281 61.246094 C 78.703125 61.246094 77.863281 62.085938 77.863281 63.121094 C 77.863281 64.871094 78.558594 66.476562 79.691406 67.664062 L 79.808594 67.792969 C 80.890625 68.875 82.351562 69.582031 83.964844 69.707031 L 83.964844 71.828125 C 83.964844 72.863281 84.804688 73.703125 85.84375 73.703125 C 86.878906 73.703125 87.71875 72.863281 87.71875 71.828125 L 87.71875 69.707031 C 89.332031 69.582031 90.792969 68.875 91.875 67.792969 L 91.875 67.785156 C 93.074219 66.589844 93.816406 64.9375 93.816406 63.121094 C 93.816406 61.308594 93.070312 59.65625 91.875 58.457031 L 91.871094 58.449219 C 90.671875 57.253906 89.019531 56.511719 87.207031 56.511719 L 84.472656 56.511719 C 83.691406 56.511719 82.976562 56.1875 82.457031 55.667969 L 82.375 55.589844 C 81.90625 55.082031 81.617188 54.402344 81.617188 53.652344 C 81.617188 52.863281 81.933594 52.148438 82.449219 51.632812 L 82.457031 51.632812 C 82.976562 51.117188 83.691406 50.792969 84.472656 50.792969 L 87.207031 50.792969 C 87.996094 50.792969 88.707031 51.117188 89.226562 51.632812 C 89.742188 52.148438 90.066406 52.867188 90.066406 53.652344 C 90.066406 54.6875 90.902344 55.527344 91.941406 55.527344 C 92.976562 55.527344 93.816406 54.6875 93.816406 53.652344 C 93.816406 51.835938 93.070312 50.183594 91.875 48.988281 L 91.871094 48.980469 C 90.785156 47.898438 89.332031 47.195312 87.71875 47.066406 L 87.71875 44.945312 C 87.71875 43.910156 86.878906 43.070312 85.84375 43.070312 C 84.804688 43.070312 83.964844 43.910156 83.964844 44.945312 L 83.964844 47.066406 C 82.351562 47.191406 80.890625 47.898438 79.8125 48.984375 C 78.609375 50.183594 77.863281 51.835938 77.863281 53.648438 C 77.863281 55.398438 78.558594 57 79.691406 58.191406 L 79.808594 58.320312 C 81.003906 59.515625 82.660156 60.257812 84.476562 60.257812 L 87.210938 60.257812 C 88 60.257812 88.710938 60.582031 89.230469 61.097656 C 89.746094 61.617188 90.070312 62.332031 90.070312 63.117188 C 90.070312 63.90625 89.746094 64.621094 89.226562 65.136719 C 88.703125 65.65625 87.992188 65.980469 87.207031 65.980469 Z M 87.207031 65.980469 " fill-opacity="1" fill-rule="nonzero"/><path fill="#ed1c24" d="M 85.84375 82.167969 C 92.410156 82.167969 98.355469 79.503906 102.65625 75.203125 C 106.960938 70.902344 109.621094 64.953125 109.621094 58.386719 C 109.621094 51.820312 106.957031 45.875 102.65625 41.570312 C 98.355469 37.265625 92.410156 34.605469 85.84375 34.605469 C 79.273438 34.605469 73.328125 37.269531 69.027344 41.570312 C 64.722656 45.875 62.0625 51.824219 62.0625 58.386719 C 62.0625 64.953125 64.726562 70.902344 69.027344 75.203125 C 73.328125 79.507812 79.273438 82.167969 85.84375 82.167969 Z M 72.03125 44.578125 C 75.566406 41.042969 80.449219 38.859375 85.84375 38.859375 C 91.234375 38.859375 96.117188 41.046875 99.652344 44.578125 C 103.1875 48.109375 105.371094 52.996094 105.371094 58.386719 C 105.371094 63.777344 103.183594 68.664062 99.652344 72.195312 C 96.117188 75.730469 91.234375 77.914062 85.84375 77.914062 C 80.449219 77.914062 75.566406 75.726562 72.03125 72.195312 C 68.496094 68.664062 66.3125 63.777344 66.3125 58.386719 C 66.308594 52.996094 68.496094 48.109375 72.03125 44.578125 Z M 72.03125 44.578125 " fill-opacity="1" fill-rule="nonzero"/><g clip-path="url(#dcb0074edd)"><path fill="#ed1c24" d="M 161.96875 75.949219 L 151.753906 26.503906 L 151.753906 26.492188 C 151.753906 26.191406 151.6875 25.902344 151.574219 25.644531 L 149.058594 13.484375 C 148.824219 12.335938 147.707031 11.597656 146.5625 11.832031 L 85.882812 24.371094 L 22.054688 24.371094 C 20.882812 24.371094 19.929688 25.320312 19.929688 26.492188 L 19.929688 90.28125 C 19.929688 91.453125 20.882812 92.40625 22.054688 92.40625 L 30.777344 92.40625 L 32.886719 102.609375 C 33.121094 103.757812 34.238281 104.496094 35.382812 104.261719 L 92.761719 92.40625 L 149.625 92.40625 C 150.796875 92.40625 151.75 91.453125 151.75 90.28125 L 151.75 80.21875 L 160.3125 78.449219 C 161.460938 78.214844 162.203125 77.09375 161.96875 75.949219 Z M 145.339844 16.410156 L 146.984375 24.371094 L 106.8125 24.371094 Z M 36.609375 99.683594 L 35.105469 92.40625 L 71.832031 92.40625 Z M 147.5 88.15625 L 24.183594 88.15625 L 24.183594 28.621094 L 147.5 28.621094 Z M 151.753906 75.890625 L 151.753906 47.4375 L 157.390625 74.726562 Z M 151.753906 75.890625 " fill-opacity="1" fill-rule="nonzero"/></g><path fill="#ed1c24" d="M 32.980469 49.050781 C 34.152344 49.050781 35.105469 48.101562 35.105469 46.929688 L 35.105469 38.964844 L 43.070312 38.964844 C 44.242188 38.964844 45.191406 38.011719 45.191406 36.839844 C 45.191406 35.667969 44.242188 34.714844 43.070312 34.714844 L 32.980469 34.714844 C 31.808594 34.714844 30.855469 35.667969 30.855469 36.839844 L 30.855469 46.929688 C 30.855469 48.101562 31.804688 49.050781 32.980469 49.050781 Z M 32.980469 49.050781 " fill-opacity="1" fill-rule="nonzero"/><path fill="#ed1c24" d="M 43.070312 77.808594 L 35.105469 77.808594 L 35.105469 69.847656 C 35.105469 68.671875 34.152344 67.722656 32.980469 67.722656 C 31.808594 67.722656 30.855469 68.671875 30.855469 69.847656 L 30.855469 79.933594 C 30.855469 81.105469 31.808594 82.058594 32.980469 82.058594 L 43.070312 82.058594 C 44.242188 82.058594 45.191406 81.105469 45.191406 79.933594 C 45.191406 78.761719 44.242188 77.808594 43.070312 77.808594 Z M 43.070312 77.808594 " fill-opacity="1" fill-rule="nonzero"/><path fill="#ed1c24" d="M 128.613281 38.964844 L 136.574219 38.964844 L 136.574219 46.929688 C 136.574219 48.101562 137.527344 49.050781 138.699219 49.050781 C 139.871094 49.050781 140.824219 48.101562 140.824219 46.929688 L 140.824219 36.839844 C 140.824219 35.667969 139.871094 34.714844 138.699219 34.714844 L 128.613281 34.714844 C 127.441406 34.714844 126.488281 35.667969 126.488281 36.839844 C 126.488281 38.011719 127.441406 38.964844 128.613281 38.964844 Z M 128.613281 38.964844 " fill-opacity="1" fill-rule="nonzero"/><path fill="#ed1c24" d="M 128.613281 82.0625 L 138.699219 82.0625 C 139.871094 82.0625 140.824219 81.109375 140.824219 79.9375 L 140.824219 69.847656 C 140.824219 68.675781 139.871094 67.726562 138.699219 67.726562 C 137.527344 67.726562 136.574219 68.675781 136.574219 69.847656 L 136.574219 77.8125 L 128.613281 77.8125 C 127.4375 77.8125 126.488281 78.765625 126.488281 79.9375 C 126.488281 81.109375 127.441406 82.0625 128.613281 82.0625 Z M 128.613281 82.0625 " fill-opacity="1" fill-rule="nonzero"/></svg>