<svg xmlns="http://www.w3.org/2000/svg" xmlns:xlink="http://www.w3.org/1999/xlink" width="244" zoomAndPan="magnify" viewBox="0 0 183.12 125.04" height="156" preserveAspectRatio="xMidYMid meet" version="1.0"><defs><clipPath id="45da9b0962"><path d="M 44.621094 11.609375 L 137.65625 11.609375 L 137.65625 104.648438 L 44.621094 104.648438 Z M 44.621094 11.609375 " clip-rule="nonzero"/></clipPath></defs><g clip-path="url(#45da9b0962)"><path fill="#8cd035" d="M 91.046875 11.609375 C 116.714844 11.609375 137.503906 32.402344 137.503906 58.035156 C 137.503906 83.703125 116.714844 104.496094 91.046875 104.496094 C 65.414062 104.496094 44.621094 83.703125 44.621094 58.035156 C 44.621094 32.402344 65.414062 11.609375 91.046875 11.609375 Z M 91.046875 11.609375 " fill-opacity="1" fill-rule="evenodd"/></g><path fill="#ffffff" d="M 98.183594 73.5 C 92.160156 73.5 86.484375 71.164062 82.234375 66.882812 C 73.421875 58.070312 73.421875 43.757812 82.234375 34.945312 C 86.484375 30.660156 92.160156 28.328125 98.183594 28.328125 C 104.246094 28.328125 109.886719 30.660156 114.171875 34.945312 C 122.980469 43.757812 122.980469 58.070312 114.171875 66.882812 C 109.886719 71.164062 104.246094 73.5 98.183594 73.5 Z M 98.183594 30.417969 C 92.71875 30.417969 87.5625 32.542969 83.695312 36.40625 C 75.722656 44.417969 75.722656 57.410156 83.695312 65.417969 C 87.5625 69.285156 92.71875 71.410156 98.183594 71.410156 C 103.652344 71.410156 108.808594 69.285156 112.671875 65.417969 C 120.683594 57.410156 120.683594 44.417969 112.671875 36.40625 C 108.808594 32.542969 103.652344 30.417969 98.183594 30.417969 Z M 98.183594 30.417969 " fill-opacity="1" fill-rule="evenodd"/><path fill="#ffffff" d="M 98.183594 68.832031 C 93.414062 68.832031 88.886719 66.988281 85.507812 63.609375 C 82.128906 60.195312 80.25 55.703125 80.25 50.929688 C 80.25 46.125 82.128906 41.632812 85.507812 38.21875 C 88.886719 34.839844 93.414062 32.996094 98.183594 32.996094 C 102.992188 32.996094 107.484375 34.839844 110.863281 38.21875 C 114.273438 41.632812 116.121094 46.125 116.121094 50.929688 C 116.121094 55.703125 114.273438 60.195312 110.863281 63.609375 C 107.484375 66.988281 102.992188 68.832031 98.183594 68.832031 Z M 98.183594 35.085938 C 93.972656 35.085938 90 36.722656 87.003906 39.714844 C 84.011719 42.710938 82.339844 46.683594 82.339844 50.929688 C 82.339844 55.144531 84.011719 59.117188 87.003906 62.109375 C 90 65.105469 93.972656 66.742188 98.183594 66.742188 C 102.433594 66.742188 106.402344 65.105469 109.398438 62.109375 C 112.394531 59.117188 114.03125 55.144531 114.03125 50.929688 C 114.03125 46.683594 112.394531 42.710938 109.398438 39.714844 C 106.402344 36.722656 102.433594 35.085938 98.183594 35.085938 Z M 98.183594 35.085938 " fill-opacity="1" fill-rule="evenodd"/><path fill="#ffffff" d="M 79.65625 70.503906 C 79.378906 70.503906 79.132812 70.398438 78.925781 70.191406 C 78.507812 69.773438 78.507812 69.109375 78.925781 68.691406 L 82.234375 65.417969 C 82.617188 65 83.277344 65 83.695312 65.417969 C 84.113281 65.800781 84.113281 66.464844 83.695312 66.882812 L 80.386719 70.191406 C 80.179688 70.398438 79.933594 70.503906 79.65625 70.503906 Z M 79.65625 70.503906 " fill-opacity="1" fill-rule="evenodd"/><path fill="#ffffff" d="M 66.699219 87.777344 C 65.273438 87.777344 63.914062 87.222656 62.90625 86.210938 C 61.894531 85.199219 61.335938 83.84375 61.335938 82.414062 C 61.335938 80.953125 61.894531 79.628906 62.90625 78.617188 L 75.859375 65.664062 C 76.277344 65.246094 76.941406 65.246094 77.359375 65.664062 L 83.453125 71.757812 C 83.660156 71.964844 83.765625 72.210938 83.765625 72.488281 C 83.765625 72.769531 83.660156 73.046875 83.453125 73.253906 L 70.496094 86.210938 C 69.488281 87.222656 68.128906 87.777344 66.699219 87.777344 Z M 76.59375 67.855469 L 64.402344 80.082031 C 63.113281 81.371094 63.113281 83.460938 64.402344 84.714844 C 64.996094 85.339844 65.832031 85.6875 66.699219 85.6875 C 67.570312 85.6875 68.40625 85.339844 69.035156 84.714844 L 81.222656 72.488281 Z M 76.59375 67.855469 " fill-opacity="1" fill-rule="evenodd"/><path fill="#ffffff" d="M 79.515625 76.738281 C 79.273438 76.738281 78.996094 76.632812 78.785156 76.425781 L 72.691406 70.328125 C 72.273438 69.910156 72.273438 69.25 72.691406 68.832031 C 73.074219 68.449219 73.734375 68.449219 74.152344 68.832031 L 80.25 74.960938 C 80.667969 75.34375 80.667969 76.007812 80.25 76.425781 C 80.074219 76.632812 79.796875 76.738281 79.515625 76.738281 Z M 79.515625 76.738281 " fill-opacity="1" fill-rule="evenodd"/><path fill="#ffffff" d="M 67.152344 83.007812 C 66.875 83.007812 66.632812 82.902344 66.421875 82.695312 C 66.003906 82.277344 66.003906 81.613281 66.421875 81.195312 L 75.722656 71.898438 C 76.140625 71.480469 76.800781 71.480469 77.21875 71.898438 C 77.601562 72.316406 77.601562 72.976562 77.21875 73.359375 L 67.886719 82.695312 C 67.675781 82.902344 67.433594 83.007812 67.152344 83.007812 Z M 67.152344 83.007812 " fill-opacity="1" fill-rule="evenodd"/><path fill="#ffffff" d="M 95.957031 63.226562 C 95.921875 63.226562 95.886719 63.226562 95.816406 63.191406 C 95.292969 63.121094 94.910156 62.703125 94.910156 62.179688 L 94.910156 44.175781 L 90.835938 52.5 C 90.664062 52.847656 90.277344 53.089844 89.894531 53.089844 L 84.949219 53.089844 C 84.359375 53.089844 83.90625 52.601562 83.90625 52.046875 C 83.90625 51.453125 84.359375 51 84.949219 51 L 89.234375 51 L 95.015625 39.195312 C 95.257812 38.777344 95.746094 38.53125 96.199219 38.636719 C 96.6875 38.742188 97 39.160156 97 39.648438 L 97 54.238281 L 97.417969 52.671875 C 97.558594 52.21875 97.976562 51.90625 98.429688 51.90625 L 100.273438 51.90625 L 101.738281 46.402344 C 101.875 45.949219 102.292969 45.601562 102.746094 45.601562 C 103.234375 45.601562 103.652344 45.949219 103.757812 46.402344 L 106.054688 54.9375 L 107.101562 50.964844 C 107.238281 50.511719 107.65625 50.199219 108.109375 50.199219 L 111.453125 50.199219 C 112.011719 50.199219 112.5 50.652344 112.5 51.246094 C 112.5 51.800781 112.011719 52.289062 111.453125 52.289062 L 108.910156 52.289062 L 107.066406 59.21875 C 106.960938 59.671875 106.542969 59.984375 106.054688 59.984375 C 105.566406 59.984375 105.183594 59.671875 105.046875 59.21875 L 102.746094 50.6875 L 102.085938 53.230469 C 101.980469 53.683594 101.5625 53.996094 101.074219 53.996094 L 99.230469 53.996094 L 96.964844 62.425781 C 96.863281 62.910156 96.445312 63.226562 95.957031 63.226562 Z M 95.957031 63.226562 " fill-opacity="1" fill-rule="evenodd"/></svg>